<svg id="Layer_1" data-name="Layer 1" xmlns="http://www.w3.org/2000/svg" viewBox="0 0 60 54.88"><title>archstone-small</title><path d="M60,53.84s-.92-.35-2.51-1c-.79-.36-1.78-.65-2.89-1.06S52.2,51,50.81,50.6l-1.06-.31L48.63,50l-2.34-.56c-.81-.18-1.65-.29-2.5-.45s-1.71-.34-2.61-.42l-2.71-.35c-.91-.1-1.85-.14-2.78-.22l-1.41-.11c-.47,0-1,0-1.42,0L30,47.8l-2.87.08-1.43,0L24.3,48c-.94.08-1.86.13-2.77.22l-2.71.35c-.9.09-1.76.28-2.61.42s-1.69.28-2.5.46L11.37,50l-1.12.25-1.06.31c-1.39.42-2.68.75-3.79,1.18s-2.11.69-2.89,1c-1.59.65-2.51,1-2.51,1s.84-.54,2.35-1.43c.74-.48,1.69-.92,2.78-1.47L6,50.53l.44-.22.46-.19,2-.8,1.06-.42L11,48.53l2.36-.74c.81-.24,1.66-.43,2.52-.65s1.74-.44,2.65-.58l2.77-.47c.93-.13,1.9-.21,2.86-.31l1.46-.14c.48,0,1,0,1.44-.06l2.92-.1,2.93.1c.49,0,1,0,1.46.06l1.44.15c1,.1,1.92.17,2.85.31l2.77.47c.91.14,1.79.36,2.65.57s1.71.41,2.52.65l2.36.74,1.11.38,1.06.42,2,.79.47.2.44.21.84.42c1.09.54,2.05,1,2.79,1.46C59.15,53.3,60,53.84,60,53.84Z" transform="translate(0 -2.99)" style="fill:#181c21"/><polygon points="21.1 27.31 21.1 3.45 15.8 5.55 15.8 25.2 16.31 25.4 21.1 27.31" style="fill:#181c21"/><path d="M25.78,32.16V47c1.3-.09,2.61-.14,3.93-.14V22.88l1.4-.56,4.47-1.78.73-.29.24-.09,2.11-.84,4.24-1.69.83-.32V8.54L29.77,3,23.62,5.44V31.31l.76.3Z" transform="translate(0 -2.99)" style="fill:#181c21"/><path d="M36.31,47.11V22.63L32,24.36V46.85C33.41,46.89,34.87,47,36.31,47.11Z" transform="translate(0 -2.99)" style="fill:#181c21"/><path d="M55.48,51.82h.05V24.36L43.74,19.67h0l-5.07,2V47.37A66.64,66.64,0,0,1,55.48,51.82Z" transform="translate(0 -2.99)" style="fill:#181c21"/><path d="M9.67,50V32.74l-2.28.91V50.82C8.14,50.55,8.91,50.29,9.67,50Z" transform="translate(0 -2.99)" style="fill:#181c21"/><path d="M23.55,47.15V33.65l-2.45-1-5.3-2.11-.33-.13-3.56,1.42V49.36A65.94,65.94,0,0,1,23.55,47.15Z" transform="translate(0 -2.99)" style="fill:#181c21"/><path d="M13.2,50.73h.09a.08.08,0,0,1,0,0l-.1.07h.11l.09,0v0l.09-.05h0l0,.08,0,0v-.06h.07l.09,0,.09,0a.26.26,0,0,1,0-.1l.14,0h.13l.1,0,.1-.07.14,0h.12l.1,0,0,.07h0v.07l0,0,0,.08,0,.1V51h0l0,.09v.12l0,.07s0,.07,0,.1a.62.62,0,0,1,0,.1l-.09,0v0a.52.52,0,0,0,0-.11l0-.08,0-.1v-.08h-.08v.08l0,.06h0v.12s.06,0,.06,0,0,.08,0,.1l.07.05h.11l.07.27h0l-.12,0v0a.21.21,0,0,0,0-.11s0-.06,0-.09l-.07,0a.27.27,0,0,1-.06.1l-.12.05a.15.15,0,0,0-.05.06h0l.21-.07h0v0l0,.07a.17.17,0,0,1,0,.1l0,0h.07l.07,0V52a.23.23,0,0,1-.12.06l0,0,0,0h0l.1,0v0l0,.09.08,0,0,.06h0l0,0s0,0,0,.06,0,0,.07.05l0,.1.05.2a.11.11,0,0,0,.07.06h0a.14.14,0,0,1,0,.06.29.29,0,0,1,0,.09s0,.06-.09.07l0,0h.07v.07a.18.18,0,0,0,0,.09l0,.07.11.39a.36.36,0,0,0,0,.11.36.36,0,0,0,0,.1V54a.62.62,0,0,1,0,.1l0,.09,0,.1.05.2a.36.36,0,0,0,0,.1v.13a.25.25,0,0,1,0,.11.58.58,0,0,1-.11.05h0l0,.08V55l.12-.06,0,.14v.13l-.11,0-.15,0h-.11v0h0l-.15,0,0-.05h-.08v0a.31.31,0,0,1-.12.05l-.31.07h-.11l-.15,0H14.1v-.18l0,0,.1-.07v-.09h0l0,.1h-.08L14,54.79a.1.1,0,0,0,0,0L14,54.68l0-.08,0-.21-.43.1a.13.13,0,0,1-.07-.06l0-.33v0l.11,0V54h0l0,.05h-.06l0,0,0,.07,0,.44-.15,0h0l-.1,0,0,0-.12.58s0,.07-.07.1h-.13a.28.28,0,0,0-.09.07l-.09.07-.11.07,0,.06h.06a.11.11,0,0,1,.08,0v.09h0l-.06,0-.24.08h0s0,0,0-.07a.2.2,0,0,1,0-.08l0-.4,0,0h0L12,55.22l-.08-.17v-.11h-.05v.17l0,.1,0,.07v0l.06.13,0,.09a.25.25,0,0,1,0,.1v.11l-.06.1-.09,0,0-.36v0a.44.44,0,0,0,0-.1.06.06,0,0,0-.06,0v.26l0,.1,0,0v0l-.06.1-.1,0v-.16a.08.08,0,0,0-.05-.07l0,.25,0,0h-.2l0,0,0,0-.09,0V55.9l0-.12.06-.1v0l0-.06a.16.16,0,0,1,0-.1l0,.08v-.32c.08-.33.13-.5.21-.84l0-.11h.06V54a.12.12,0,0,1,0,0s0,.06,0,.1a.19.19,0,0,0,0,.1l0,0,0-.06,0,0,0,0L12,54s0-.06,0-.1v-.24L12,53.6v-.13h0c.08-.38.12-.57.21-.95h.08l.07,0v0h0l0-.07h0a.3.3,0,0,0,0-.1c.06-.27.1-.41.16-.69v-.13l0-.09.09-.24.07-.09a.15.15,0,0,0,.09,0l.15,0a.14.14,0,0,1,.07-.08l0,0,0,0-.06,0,0-.06.1,0h0Zm-1.84,5.15h0S11.37,55.87,11.36,55.88Zm.1-.27a.43.43,0,0,0,0,.07l.05,0h0v0Zm0,.18v.09a.1.1,0,0,0,0,.07v-.09A.15.15,0,0,0,11.49,55.79Zm.07-.68,0,.09v.07l0,.06v.17l0,.06.06,0,0,.06h0l0-.43v-.09Zm0-.13h0Zm.47-.76-.1.07a.36.36,0,0,0,0,.11.27.27,0,0,0,.08-.07s0-.06,0-.1Zm0-.54,0,0v.08A.38.38,0,0,0,12,53.68Zm-.06.74v.11l0,0,.05.18v.37l0,0,0-.22v-.21a.2.2,0,0,0,0-.08v-.08a.21.21,0,0,0,0-.07Zm.12-1.16,0,.07,0,0v.08h.05a.48.48,0,0,1,0-.14S12.15,53.25,12.1,53.26Zm.13-.52-.08.13h0l.07-.08v0Zm-.08.38a.08.08,0,0,0,.08.05.14.14,0,0,0,0-.06Zm0,.76a.14.14,0,0,0,0,.07l0,0,0,0Zm0,.14h0l0,0Zm0,.3v.08h.05S12.15,54.34,12.12,54.32Zm.08-1.38,0,0h0l0,0Zm0-.58h0a.22.22,0,0,1,0,.1h0Zm.08.21a.18.18,0,0,0-.09.06v.08h0l.06-.06,0-.06Zm0-.53,0,0,0,0Zm.05-.21h0v0h0Zm0,3.43v.07h.05v-.07Zm.17-2.06-.06,0,0,0,.08.06h0a.19.19,0,0,0,0-.07Zm-.07.38s0,.05,0,.07v-.07Zm.33-1.79-.05,0v.1l0,.07h0l0,0-.07,0,.06.07a.23.23,0,0,0,.12,0,.3.3,0,0,1,.06-.11l.07,0v-.07A.11.11,0,0,0,12.83,51.79ZM12.57,53v0h0v0Zm-.07,2s0,.05,0,.06v0h0Zm.14-3.13h0Zm0,2.31v.12l0,.49v.33h0v-.24l0-.24v-.23h0v-.22Zm0-.43,0,.23,0,0,0-.1v0A.16.16,0,0,0,12.68,53.73Zm0,.33,0,0S12.68,54.07,12.66,54.06Zm.07-.76,0,.09,0,.17a.17.17,0,0,0,0,.07s0-.05,0-.08l0-.17Zm0-.2,0,.09,0,0a.19.19,0,0,0,0-.08S12.76,53.11,12.74,53.1Zm.1-2.17h.05a.08.08,0,0,1,0,.06s0,0,0,0Zm0-.13.07,0v0l-.06,0ZM12.92,52v.09l0,0H13l.06,0v-.07l0,0,0,0Zm.05-.67,0,.09a.1.1,0,0,0,0,0v-.15Zm0,.27s0,0,.06,0v0Zm.13,1,0,0a.08.08,0,0,0,0,.05l0,0S13.13,52.62,13.12,52.6Zm0,1.55,0,0v0h0l0,0v-.05Zm0-.52v.08h.05l0-.08Zm0,.65v.07l.09,0A.13.13,0,0,0,13.11,54.28Zm.12-3.35a.14.14,0,0,0,.06.07h.1s0-.06,0-.06Zm0,1.72v.06l0,0a.08.08,0,0,0,0,0Zm.07.1-.07,0v0h.05l0,0,0,0Zm.28-1.07c-.1.69-.16,1-.27,1.72v.1l0,0,0,.16.06,0,.07,0a.1.1,0,0,0,0-.05l-.06,0a.09.09,0,0,1-.06,0l0-.06s.08,0,.09,0,0,0,0,0h.09l0-.08.16-.08.06,0,.08,0a.05.05,0,0,0,0-.06l-.13,0-.09,0v0l-.06,0-.15-1.54S13.59,51.67,13.55,51.68Zm-.12-1.06.08,0v.06h-.07Zm0,3.14a.16.16,0,0,0-.05.11.25.25,0,0,1,0,.09.18.18,0,0,0,0-.1A.22.22,0,0,0,13.39,53.76ZM13.47,51v0l.08,0Zm.1-.19,0,.06h0l.06,0a.07.07,0,0,0,0-.05Zm0,2.86v0h0l0,0,0,0,0-.06Zm0,.61,0,0Zm.13-3.68h0l0,0Zm-.06,3.67,0,0A0,0,0,0,0,13.59,54.26Zm.21-3.72.11,0h0l0,.05-.2,0Zm0,.28s0,0,0,0Zm0,.18a.05.05,0,0,0,0,0V51Zm0,1.24a.05.05,0,0,0,0,0A.05.05,0,0,0,13.8,52.24Zm0-.38s0,0,0,0S13.83,51.87,13.81,51.86Zm0,1.44h.06v.05A0,0,0,0,1,13.78,53.3Zm.05.24,0,.09h0l0-.07ZM13.91,51v.06l0,0L14,51Zm0-.36s0,0,0,0l0,0Zm0,2.76,0,.06a.08.08,0,0,0,.07,0,.14.14,0,0,0,0-.06Zm.12-1.2a.09.09,0,0,0-.06.06h0l.06-.05Zm-.07.92a.08.08,0,0,0,.05.07l.11,0s-.06,0-.08,0Zm0-1h0Zm.75,1.53-.13.06-.58.47a.07.07,0,0,0-.06.06l.12-.07.1-.07.21-.14.12-.07.08-.08.09-.08A.09.09,0,0,0,14.73,53.65Zm-.58-3.19h.16a.08.08,0,0,1,.08,0l-.06,0-.13,0,0,0h0l-.06,0Zm-.05.59s0,0,0,0Zm0,.61s0,0,0,0Zm.13.43-.11,0,0,0h.1l0,0S14.23,52.11,14.24,52.09Zm-.16,1.32v.05h0A.13.13,0,0,0,14.08,53.41Zm0,1.17s0,0,0,0ZM14.12,52V52l.06,0Zm.07,2.62-.1,0v.06h0l0,.07,0,0h0l0,0a.08.08,0,0,0,0,0,.24.24,0,0,1,0-.07Zm-.06-1.09,0,.09s0,0,0,0v-.07l0,0Zm.18-1,0,.07-.08,0,0,.06v.07h0l.09,0,0,.05s0,0,0,0h0v0l-.05,0,.05-.06-.05,0,0,0h0l.07,0,0,0Zm-.11.66-.06,0v.07l0,.12h0V53.2Zm0-2.14a.08.08,0,0,0,.09,0V51Zm0,1.36a.13.13,0,0,0,0,.06v0Zm0,1.46s0,0,0,0Zm0,.46v.17l.06,0s0-.05,0-.08Zm0-.18,0,.07.05,0,.06-.05Zm0,.72v.06h0v-.06Zm.15-4.26s0,0,0,0ZM14.16,55l0,0S14.18,55,14.16,55Zm.07-1.62,0,0,.07,0A.12.12,0,0,0,14.23,53.39Zm.07-2a.19.19,0,0,0,0,.07l.06,0v-.06Zm-.11,4s0,0,0,0v0Zm.35-3.47-.09,0-.14.12h0l.26-.13v0ZM14.42,51l-.05.05.06,0,.05,0,.07,0a.14.14,0,0,0,0-.06v0l0,0h-.11Zm-.11,3.32,0,0,0,0a.09.09,0,0,0,.07,0l0,0v0Zm0-.15a.15.15,0,0,0,0,.07h0l0-.05Zm0,.47a.05.05,0,0,0,0,0Zm.15-4.29.1,0h0v.06l0,0h-.12Zm-.07,3.69-.05.05s0,0,0,0l0-.05v0Zm0,.65,0,.06h0l0-.06A0,0,0,0,1,14.37,54.73Zm0,.14,0,.05h0l0,0S14.42,54.87,14.41,54.87Zm0-.16h0Zm.06-1.19,0,.06.06,0,0-.07Zm0,.88,0,0h0ZM14.5,53v0h0S14.51,53,14.5,53Zm0,2a.12.12,0,0,0,.09,0A.14.14,0,0,0,14.46,54.94Zm0-.75v.06h0l0,0h0S14.54,54.18,14.49,54.19Zm0,1,0,0v0Zm.09-.8,0,0h0l0,0Zm0,.9a.09.09,0,0,0,0,.05h.1s0,0,0,0Zm.15-1.39a.21.21,0,0,1-.11.07l0,.08h0a.24.24,0,0,1,.09-.08l0-.07Zm-.11.36v.09l0,0,0,0h.11s0,0-.06-.06Zm.13.1v.1s0,.06-.08.08l0,0s0,0,0,0h.21l-.05-.09v-.16Zm0,.45a.05.05,0,0,0,0,0v0Zm.08-1v0l0,0h0Zm0,.92v.09l.07,0,0-.07Zm0-.66v.06h0A.17.17,0,0,0,14.78,54.08Zm.06-.67v0l0,0Zm0,.23v.07l.05,0,0-.07Zm0,.59v.07h0A.14.14,0,0,0,14.82,54.23Zm0-.28h0Zm.06,1.12a.18.18,0,0,0-.07,0s0,0,0,0l.07,0S14.92,55.07,14.89,55.07Zm0-.78s0,0,0,0Zm.07-.8,0,0A.05.05,0,0,0,14.93,53.49Zm.12.07a.16.16,0,0,0-.08.06v0l.08,0,0,0h0v0Zm-.07.75a.05.05,0,0,0,0,0V54.3Zm.1-1.46a0,0,0,0,0,0,0S15.09,52.86,15.08,52.85Zm0,1.62v0Zm0,.47L15,55h.05a.13.13,0,0,0,.06,0Zm.14-1.08a.07.07,0,0,0-.06,0s.05,0,.07,0a.15.15,0,0,0,.07,0Zm-.08,1.27v0l0,0Zm.08-1.37s0,0,0,.05S15.26,53.77,15.23,53.76Zm0,1.07a.17.17,0,0,0,0,.05h0l0-.05Zm.15-.1-.06,0,0,0h0l.07,0v-.05Zm-.05-.15v0l0,0Zm0,.57,0,0,.06,0Zm.18-.27.08,0,0,.07v.09a.19.19,0,0,1,0,.08s-.05,0-.05,0v-.18A.08.08,0,0,1,15.56,54.88Z" transform="translate(0 -2.99)"/><path d="M17.54,50.44l1-.17h.52l.23,0,.2.07.14.13,0,.06.05,0,0,0,0,.13v.08l0,.06v.22h0s0,0,0,.06l0,.33,0,.16-.06.15L19.7,52l-.1.1-.05.06,0,0-.06.05-.16.07h-.1s0,0,0,.06l.28.08.1.08,0,.06,0,0v.09l0,0v.06h0l-.05,0,0,0h.06l.07-.07v.67l-.09.07,0,0,.07,0a.21.21,0,0,1,0,.06l-.06,0-.11.06s0,0,0,0l0-.08v-.09s0,0-.05,0l-.19,0v.05h.1l0,0h0v0h-.21a0,0,0,0,0,0,0v.09l0,.07,0,0v0a.64.64,0,0,1,0-.07v-.08h0l-.07.08-.12.09V54l.06,0a.16.16,0,0,1,0,.06l0,0,0,.06a.18.18,0,0,0,.07-.05l.07,0a.13.13,0,0,0,.08,0l0-.07,0,0,.09,0,0,.06.06,0,0,.14h0l0,0h0l-.05,0,.05-.06s0,0,0,0l.06,0V54l-.05,0s0,0,0-.06,0,0,.05,0l.08,0V54l.08.19a.09.09,0,0,0,0,.06l.05.12.06,0-.09,0-1,.14a.58.58,0,0,0-.12-.19v-.09l0,0v-.08l0-.06.05,0V54h0l0,0h0v-.53s0,0,0-.06v-.09l0-.07,0,0v-.08a.14.14,0,0,0,0-.06.19.19,0,0,1,0-.08l0,0-.05,0,0,0-.06,0v0h0l-.44.11-.08,0v.07c0,.65,0,1-.06,1.63L16.6,55v-.13a.34.34,0,0,1,.06-.06v0l0,0,0,0,0-.71v-.26l0-.07.06,0,.05-.06h0v0l-.08,0v0h0l0-1.6a.24.24,0,0,1,0-.08v-.06l0-1.26,0,0,0,0a.1.1,0,0,0,.05,0l.09.08.05,0,.05,0,0,0,.05-.06,0-.07-.08,0-.06,0v0a.36.36,0,0,0,0-.07l-.11-.05,0,0v0h.13l.08,0,.4-.07a.07.07,0,0,1,0,.06v.07a.09.09,0,0,1,0,.05l0,.25-.07,0a.09.09,0,0,0-.06,0l0,.07,0,0,0-.08.08,0,.07,0v0l.05,0,0,.07,0,0-.07,0,0,.06-.09,0a.21.21,0,0,1,0-.06h0l-.09-.05,0,0-.05.06a.14.14,0,0,0,0,.06s0,0,0,0l.12.06.09.09.05,0s0,0,0,0l.05,0,.05.05v.07l-.08,0-.21,0h0l-.09,0,0,0,.07,0,0,.05h0l.07,0a.1.1,0,0,0,0,.05h0l0,0a.11.11,0,0,1,.08,0l0,.09,0,0a.1.1,0,0,1,.05,0l0,0,0,0,0,0v0h0a.13.13,0,0,0,.07,0l0,0,0,0a.12.12,0,0,0,.05,0v0l.07,0a.08.08,0,0,1,0,.07.21.21,0,0,1,0,.06l-.07,0,0,.07,0,.06h.08l.09.09a.09.09,0,0,0,.05,0l.07,0s0,0,0,0l.09,0v.07l.07,0a.13.13,0,0,0,0-.06l0-.06a.15.15,0,0,1,.06,0l.07,0,.06-.05.07,0h.09l0,.12-.08.07h-.11l-.1.15-.06,0h.06l.06,0a.05.05,0,0,0,.05,0l0,0,0,0v-.06h0l0,0a.05.05,0,0,0,0,0,.14.14,0,0,1,0,.06l0,.06v0s0,0,0,0l.09,0,0,0a.21.21,0,0,1,0-.06l.07,0v.08a.21.21,0,0,0,0,.06l.07,0v-.07l0-.07,0-.08.05-.06.05,0,.07,0,.07,0s0-.06,0-.07l.07,0,.08,0a.06.06,0,0,0,.06,0s0-.05,0-.07h.09a.09.09,0,0,0,0-.06h-.1l0,.06-.06.05-.08,0s-.05,0-.06,0,0,0,0,.06,0,0-.05.05l-.06,0h0v-.17l-.07,0s0,0,0,0l.06,0L19,52l.07,0,.05-.06a.1.1,0,0,1,0,0l.07,0v-.06l-.06,0-.07,0-.3,0s-.05,0-.07,0v-.07a.11.11,0,0,0,0,0v0a.07.07,0,0,0,0-.06,0,0,0,0,1,0,0l-.05-.12,0-.06,0-.06,0-.05,0,0h-.08l-.07,0v-.25l.16,0,0,0-.05,0s0,0,0-.05l.05,0,0-.07a.09.09,0,0,0,0,.06l-.08,0-.1.27h0s0,0,0,.06v.08h-.09l0-.05h0v.07H18l-.05,0,0,0,0,.06,0,0v0l-.07.05-.06,0,0,.05v.08h0v-.1h0l.08,0a.1.1,0,0,1,0,0l-.06.24,0,0a.18.18,0,0,1-.05.07l-.08,0,0,0h0a0,0,0,0,0,0,0l0,0-.05,0-.06,0v-.28h0a.1.1,0,0,1,.06-.05h.1l-.05,0s0,0,0-.08a.07.07,0,0,1,0,.06v0l0,0v-.08a.09.09,0,0,0,0,0h0v0l-.06,0,0,0,0-.07s0,0,0,0-.05,0-.06,0l0,0v-.42Zm-.83,1.89a.15.15,0,0,1,0,.1l0,0s0,0,0,0l0,.08,0,0a.34.34,0,0,0,.12-.06.29.29,0,0,1-.1,0v0h.07v-.06H16.8A.19.19,0,0,0,16.71,52.33Zm-.05,1.56V54l0,0v0Zm0-1.28s0,0,0,0l.06,0,0-.05ZM16.85,54l0,.06-.09,0-.06,0s0,0,0,0,0,0,0,0l.07,0,.06,0Zm-.1-3,0,0Zm-.05,2v0l0,0Zm.07-1.9v.08h0V51Zm0,.92h0Zm0,.06v0h0Zm-.06,2.29a.5.5,0,0,1,0,.12l0,.09h.06V54.4A.16.16,0,0,0,16.7,54.32Zm.06-.56,0,.09h0l0,0Zm0-.61,0,.05v-.06ZM17,51.06l-.1,0,0,0,0,.05.1,0v-.08Zm-.16,1.22s0,0,0,0v0Zm0,1.91s0,0,0,.05S16.8,54.21,16.79,54.19Zm.1-2.79h0l.07,0Zm0,1.93-.05.07h0l.09-.09Zm0-1.42a.19.19,0,0,0,0,.07h0l0,0Zm0,1.87,0,.06,0,0v-.07h0Zm0-.93a.14.14,0,0,0,0,.06Zm0,.69,0,.16h0l0-.08v-.07Zm0,.47,0,0,0,0h0v0Zm0-1.69a.09.09,0,0,0,0,0A.09.09,0,0,0,17,52.32Zm0,.15a.05.05,0,0,0,0,.05A.05.05,0,0,0,17,52.47ZM17,50.62l0,.08,0,0a.08.08,0,0,0,0,0ZM17,54.11v.11h0v-.09S17,54.12,17,54.11Zm.07-2.7v.06l0,0V51.4Zm-.05,2h0v0ZM17,52l0,0S17,52,17,52Zm0-.1,0,0h0Zm0,.5,0,0v0Zm0,.76v0l0,0Zm.09-1.84,0,0Zm.09,2.56-.06.05-.08,0a.07.07,0,0,0,0,.05h0l0,0h0l.15-.06,0-.06Zm-.12.53s0,0,0,0S17.09,54.42,17.09,54.4Zm0-1.67v0l0,0Zm.06-1.61,0,.06h0v-.06Zm.08-.17a.16.16,0,0,0-.08,0v0l.06,0,.08,0Zm-.07.73v.06h.06S17.22,51.69,17.18,51.68Zm0,.21,0,0Zm-.06,2.59v0h0v0Zm.1-3.57h0Zm0,1,0,0Zm0,1.07v0h0S17.2,53,17.19,53Zm.07.44v.13l-.05.2,0,0,0,0,0-.1,0-.09v-.19Zm0-1.84a.09.09,0,0,0,.05,0,.08.08,0,0,0,0,0v-.07Zm0,2.36,0,0,0,0V54Zm0,.44v0h0v0Zm0-.13,0,.06h.1a.1.1,0,0,0-.05,0Zm.05-1.09a.19.19,0,0,0,0,.07A.14.14,0,0,0,17.28,53.2Zm.07-2.55a0,0,0,0,1,0,0v0Zm0,2.28,0,0h0S17.32,52.93,17.31,52.93Zm0,.41h0Zm0,0a.14.14,0,0,0,0,.06h.05A.18.18,0,0,0,17.3,53.35Zm0-.24s0,0,0,0Zm.08-1.53,0,0,0,0s0,0,0,0v-.07S17.44,51.58,17.41,51.58Zm0,2.34-.05,0,0,.05,0,0Zm0-.13-.05,0,0,.06.05-.08Zm0,.31,0,0S17.4,54.1,17.38,54.1Zm.19-1.39-.1,0a.25.25,0,0,0,0,.07.21.21,0,0,0,.08-.06Zm-.13.69s0,0,.06,0A.09.09,0,0,0,17.44,53.4Zm.07-.78v0h0Zm0-1.06v0h0v0Zm0,.08,0,.07,0,0,0,0Zm0,1.36v.06h0l0,0,0,0Zm0,1.2v0h0s0,0,0,0Zm.11-3.66v.07l.06,0S17.62,50.55,17.59,50.54Zm0,1.86,0,0h0Zm0,1.42v.08h0l0-.08Zm0-.94,0,0Zm0,.85h0s0,0,0,0l0,0Zm0-.12a.11.11,0,0,0,.07.08A.11.11,0,0,0,17.56,53.61Zm.16-2.91-.07,0v.09l0,0v0h0s0,0,0,0l.08,0,.05-.06a.1.1,0,0,1,0,0A.09.09,0,0,0,17.72,50.7Zm-.1,1.95h0Zm.06-2s0,0,0,0Zm0,2.5v.1l0,.19a.13.13,0,0,0,0,.06l0-.09,0-.1v-.16Zm0-.68,0,.07,0,0,.06,0,0-.05Zm0,1.44a.13.13,0,0,0,0,.06l.07,0v0Zm0-1.6v.05l0,0Zm0,.45,0,.19a.29.29,0,0,1,0,.09v.07l0,0a.13.13,0,0,0,.06-.07.58.58,0,0,1,0-.1v-.1A.09.09,0,0,0,17.72,52.75Zm0-.17,0,0S17.72,52.59,17.72,52.58Zm0-1.69v0l.05,0,0,0Zm-.05,2.53v0h0v-.05Zm.05-1.31h.06l0,0,0,0-.05,0Zm.09-1.43,0,0Zm0-.18,0,.1h0s0-.06,0-.09Zm0,1.88,0,0h0a.43.43,0,0,1,0,0Zm.08-1.63a.09.09,0,0,0,0,.06h.05s0,0,0-.06ZM18,52.16h.07l.1,0h.06l0,0-.15.09,0,0,0,0,0-.06ZM18,51v.06H18Zm.05-.14v0h.07v0Zm.07,1.38.08,0-.05.07-.06,0ZM18.14,51v0Zm0,.07a.13.13,0,0,0,0,.06,0,0,0,0,0,0,0l0-.06Zm.1-.37,0,.06s0,0,0,0a.09.09,0,0,0,0-.06v0Zm-.07,2.19v0h.06v0Zm.09-2.34,0,0v0h0l0,0Zm.3,1.41h0l0,0h.06s.05,0,.05,0l-.27.15-.08,0h-.05v0l0-.06h.07a.1.1,0,0,0,0-.05l0,0v0l0,0h0v0Zm-.26.8,0,0a0,0,0,0,0,.05,0,.09.09,0,0,0,0-.06ZM18.36,51s0,.06,0,.06,0,0,.05,0v.09l.05,0,.06-.06-.05,0,0,0Zm.21,1.41h.1v0a.28.28,0,0,0,0,.09h-.12v-.06Zm.05.48,0,0v0Zm.11-.68v0h-.06A.09.09,0,0,1,18.73,52.17Zm0-.66a.08.08,0,0,0,0,0A.05.05,0,0,0,18.72,51.51Zm0,1.64v0h0S18.7,53.16,18.69,53.15Zm0-.91h.08v.05h-.05Zm.17,1.43-.12.06a.18.18,0,0,0-.05.07l.12,0A.22.22,0,0,0,18.89,53.67Zm0-1.78h.06s0,0-.07,0l0,.1a.15.15,0,0,1-.06-.09Zm0-.17s0,0,0,0Zm0,1,0,0,0,0,.12,0,0,0Zm.08-.34a.3.3,0,0,1-.08.08l.1,0a.14.14,0,0,1,.06.07l.12,0v-.08l0,0-.07.08a.13.13,0,0,1-.07-.06l0-.07Zm-.05.18v0h0Zm.07.81v.06h0a.07.07,0,0,0,.07,0l0-.06Zm0,1,0,0S19,54.36,19,54.35Zm.26-1.85a.56.56,0,0,1-.05.08l-.06.06,0,.1,0,0h0a.08.08,0,0,1,.05,0s0,0,.07,0h.06l0-.07s0,0,0,0h.14v0a.07.07,0,0,0-.06,0l-.17,0a.16.16,0,0,1,0-.07.05.05,0,0,0,.06-.06Zm-.13-.57a.08.08,0,0,0,0,0A.08.08,0,0,0,19.08,51.93ZM19,54h0v.07A.09.09,0,0,1,19,54Zm.17-.54a.34.34,0,0,0-.12.06l0,.06.05,0,.07-.09.07,0v0Zm-.08-.12,0,.05h.07Zm0,.32v.06h0v-.05Zm.13-1.73,0,0v0l0,0,.06,0Zm0,.3v.05l.06,0Zm0,.87v0h0v0Zm0-1.7v0Zm0,1.57a.06.06,0,0,0,.07,0Zm.25-1.36-.1,0-.06.06,0,0,.12,0,0,0,0,0a.14.14,0,0,1,0-.07v0h0l0,0Zm-.19,2h0Zm0-1v0l.05,0S19.3,52.63,19.27,52.63Zm.06-.16,0,.15,0,0a.19.19,0,0,0,0-.08h0Zm.05-.34,0,0h.11S19.43,52.12,19.38,52.13Zm0,1.26a.08.08,0,0,0,0,0S19.37,53.4,19.35,53.39Zm0-.5v0h.08v0Zm0,.42,0,0Zm0,1,0,0h0Zm.05-2.44s0,0,.05,0Zm0-.19v.06h.05v0h-.06Zm0,1.15v.07h0A.06.06,0,0,0,19.47,52.81Zm0-.09v0h0Zm0,.75,0,0S19.53,53.48,19.53,53.47Zm0-.84s0,0,0,0Zm.11-1.13-.05.06h0a.12.12,0,0,0,.05,0Zm0-.16-.05,0s0,0,0,0h0v0Zm0,1.94-.06,0h.07v0Zm0,.4a.05.05,0,0,0,0,0Zm.09-2.11,0,.07,0,0,0-.06Zm0-.14,0,0,0,0,0,0Zm0,2.42a.06.06,0,0,1,0,.06S19.72,53.87,19.72,53.85Z" transform="translate(0 -2.99)"/><path d="M22.89,49.72l.51,0h0l.29,0a.17.17,0,0,1,.1,0h.07v0l.08,0L24,50a.08.08,0,0,1-.08,0l0,0s0,0,0,0H24v.17H23.8l0,0H24v.09l0,.05h-.05l-.18,0-.05,0,0,0-.47.05H23a.09.09,0,0,1-.06-.06s0,0,0,0v0l-.07.07h-.1l-.12,0-.07,0h0l-.06,0s0,0,0,0l0,0,0,0,0,.09-.05.07-.06.2s0,.07,0,.11v.11h0l-.16,0H22v0l.08,0,.09,0a.11.11,0,0,1,.06.07v.09l0,.08v0l0,.22v.49l-.06,0h0l-.06.07v.07l.06,0,0,0v0l0,0,0,.09V53a.37.37,0,0,0,0,.09l.05.07-.12,0-.52.08-.12,0-.08.05v0l.37-.06.12,0,.25,0h.22v0a.15.15,0,0,0,.1,0l.48,0h0l.06.06.12,0a.12.12,0,0,0,.08,0v0l.62-.06h0l-.07.05v0l.05,0a.37.37,0,0,1,0,.11v.2h0s-.05,0-.05-.06h0v-.1a.09.09,0,0,0-.06.06v.1l.08,0a.29.29,0,0,1,0,.08v.23a.41.41,0,0,1-.05.09H23.8v0h0v0h0l-.05.08h-.1v0a.18.18,0,0,1,.05-.08l.08,0a.27.27,0,0,0,.08-.07v-.1h-.06l0,0-.1.16-.06.08-.08.06v0l-.08,0v0a.09.09,0,0,1,0-.06l-.12,0-.07,0-.11,0-.09,0a.21.21,0,0,1-.06.08h-.11l-.24,0v0l-.08,0h-.13l0,0,.16-.07.07-.07s0,0,0,0l-.14.06-.07.06-.07.08h-.12l-.33,0-.19-.06L21.35,54l-.19-.17L21,53.61,21,53.44l0-.1a.3.3,0,0,1,0-.1l0-.43.05-.08-.06-.06v-.2h0s.06,0,.07-.05H20.9v-.36h0v-.12a.29.29,0,0,0,0-.09.16.16,0,0,1,.07-.07h0s0,0,0,.06,0,0,0,.08L21,52A.18.18,0,0,0,21,52l.06,0v0l.06,0,0,0h0l0-.19s0-.06,0-.09l0-.06h-.09l0-.05.06-.07,0,0a.14.14,0,0,1,0-.06.14.14,0,0,1,0-.07h0l-.09.05a.36.36,0,0,0,0,.09h0s0,0,0,.06l0,.06,0,0h0s0,0,0,.07l0,0h-.05v-.12l0-.09v-.1s0-.07,0-.1v0l.07,0h.19V51.2a.09.09,0,0,0,0-.05l.05,0,.07,0a.11.11,0,0,0,.06-.07s0,0,0-.08a.25.25,0,0,0,0-.07l0,0,0-.14,0-.23v-.06l0,0v.08h0l0,.09v0l0,0v-.11l.05,0v0l-.06-.06v0l0,0v0a.08.08,0,0,0,0,0v-.09l0,0,.11,0a.15.15,0,0,0,0-.07l.12,0h0l0-.06.13-.06v.07l0,0,.06,0v-.08h0l.06-.08.19-.1.78-.12.09,0,.24.12.09,0,.1,0a.12.12,0,0,1,.08,0h.11L23.39,50l-.34-.15-.09,0A.12.12,0,0,1,22.89,49.72ZM21,51.09h0v0h0Zm.16-.51h0l0,.31-.1,0h0v-.08l.06-.18ZM21,53.07s0,0,0,0S21,53.08,21,53.07Zm0,.17s0,0,0,0S21,53.26,21,53.24Zm0-.32V53h.06S21.06,52.92,21,52.92Zm0-.21,0,0h.06l0,0Zm0,.63v.09h0l.06.06,0,.09a.07.07,0,0,0,.07,0,.29.29,0,0,0,0-.09l0-.09,0-.08A.13.13,0,0,0,21.05,53.34Zm.15-1.92v.06l.12,0h.1l.31.11.08,0v-.08l-.09,0s-.06,0-.08,0l-.08,0-.17,0Zm0,.12a.17.17,0,0,0,0,.1l0,.37s0,0,0,0a.1.1,0,0,1,0,.08v.1l0,0,0,0V52h0v-.07l-.06-.06-.05-.05,0-.08a1702014199220.23,1702014199220.23,0,0,1,0-.18Zm0-.71h0v0Zm.06,2.36,0,0h.06l0,0Zm0-2.7h0l0,0h0Zm0,2.22s0,0,0,.07l.05,0h.16l0,0h0l-.12-.06S21.34,52.72,21.31,52.71Zm0-1v0l.07,0Zm0-.76a.12.12,0,0,0,0,.08.15.15,0,0,0,.1,0,.18.18,0,0,0,0-.09Zm0,2.91s0,0,0,0S21.36,53.83,21.34,53.83Zm.05-3.12,0,.09v.06h0l.08-.06h.08v0a.08.08,0,0,0,0,0l0-.09-.05,0h-.16Zm0,1.7v.1a.19.19,0,0,0,0,.07V52.4Zm0,.84s0,0,0,.06h.07l0-.06Zm.14-2.2a.19.19,0,0,0,0,.09.1.1,0,0,1-.05.07s0,0,.05.07l.11,0a.05.05,0,0,0,0,0,.51.51,0,0,0,0-.09l0-.08A.09.09,0,0,0,21.56,51.05Zm-.13,2v0l0,0Zm.18-2.8-.09,0s0,0,0,.07v.07h.09s0,0,0,.06l-.05,0-.08,0v.05l0,0,.08,0,0-.06,0-.22v-.07Zm-.14,1.91v0Zm0,1.34,0,.08v.05h0a.19.19,0,0,0,0-.08Zm0-1.62,0,.1a.24.24,0,0,1,0,.08h0a.16.16,0,0,0,.08-.06l.12,0a.11.11,0,0,0,.07-.06,0,0,0,0,0,0,0h-.1l-.09,0A.08.08,0,0,0,21.48,51.88Zm0,1.81,0,.09V54l0,0,0-.08v-.18S21.52,53.7,21.48,53.69Zm.08-3.38a0,0,0,0,1,.05,0A.05.05,0,0,1,21.56,50.31Zm0,1.45,0,0A.05.05,0,0,0,21.58,51.76Zm0,.26a.28.28,0,0,0,0,.09h.06l0-.06h0Zm0,.13a.1.1,0,0,0,0,.05l0,0,0,0Zm0,.56s0,0,0,0h0l0,0Zm.06-1.89a.14.14,0,0,0,0,.06l0,0a.09.09,0,0,0,0-.06S21.73,50.82,21.7,50.82Zm0,1.79,0,0s0,0,0,0l0,0Zm0,.35v0h0v0Zm.1-2.84v0l0,0v0Zm0,.21v0h0Zm0,.21v.05h0a.43.43,0,0,0,0,0Zm0,1.19a.08.08,0,0,0,0,.05v-.05Zm.06-.8a.19.19,0,0,0,0,.07.06.06,0,0,0,.07,0,.05.05,0,0,1,.06,0v0l0,0L22,51v0h0Zm0,1,0,0h.06l0,0Zm0,.12v0h0A0,0,0,0,0,21.82,52.05ZM22,50a.19.19,0,0,1-.09,0v0l.05,0,.48.21.07,0v0l-.06-.05-.17-.06-.06-.05-.1,0A.09.09,0,0,1,22,50,.07.07,0,0,0,22,50Zm-.1.36v0h.06l.09,0s0,0-.07-.05Zm.07,1.46,0,.06s0,0,0,0l0-.1Zm0-1v0Zm0,1.28,0,0h0A0,0,0,0,0,22,52.11Zm.05-.46,0,.06h0l.1,0h0a.1.1,0,0,0,0-.05Zm0-1s0,0,.06.07a.16.16,0,0,0,.08,0v-.1l0,0Zm0,.92a.14.14,0,0,0,0,.06A.14.14,0,0,0,22,51.56Zm0-.75a.1.1,0,0,0,0,0l.06,0,.06,0h0l.06,0a.13.13,0,0,0,0-.06h-.08l0,0Zm0,.38,0,0h0ZM22,54h0a.07.07,0,0,0,.05,0,.14.14,0,0,0,0-.06Zm.06-3.12V51l.06,0V51h0A.05.05,0,0,0,22.06,50.92Zm0,1h0Zm.09-.82h0Zm.08-.39,0,.05h.1l0,0,0-.06Zm.11-.8h0s0,0,0,0h.08a.14.14,0,0,0,0-.06Zm0,3.47v.06h.07S22.35,53.36,22.3,53.36Zm.15-2.91a.11.11,0,0,0,0,.06h.06a.16.16,0,0,0,0-.06Zm0-.11,0,0Zm.15.26h0v0h-.06Zm0-.15a0,0,0,0,0,0,0A0,0,0,0,0,22.59,50.45Zm.09,3.37-.07,0s0,0-.05,0l.06,0h.16l0-.06,0,0Zm-.09-.16v.08h0l0-.08h0Zm0,.38-.05.09h0l0,0,.06,0h0l0,0,0-.05h-.15Zm0-.53a.14.14,0,0,0,0,.06h0v-.07Zm0-.13v0l0,0Zm.21-2.93s0,0,0,0Zm0,3.61v.07h.09l0,0h-.11Zm0-.23v.06h.05l0,0h-.08Zm.07-.29v.06h0v-.06ZM23,50.37v0h.06Zm0,3.05s0,.07,0,.07h.09l0-.06Zm0,.4h0v0h0A.09.09,0,0,0,23,53.82Zm.06,0h0Zm.11-3.49,0,.05h.1v-.06Zm.07.1v0h0S23.29,50.4,23.25,50.39Zm.1.06,0,0h.1s0,0,.06,0l.06,0-.06,0,0,0Zm0,3.27a0,0,0,0,0,0,0v0Zm.17-3.57-.09.05v0h.07l.09,0A.1.1,0,0,0,23.49,50.15Zm.12,0v0h0v0Zm-.05,3.91h.06l0,0h-.05Zm0-.35v.05h.07v0Zm.1-.45h-.09s0,0,0,0h.07v0Zm-.08.31v0h0Zm0-.09v.06h0l0,0Zm.12-3.14-.06,0,0,0h.06v-.06ZM23.78,54v.06h-.06A.1.1,0,0,1,23.78,54Z" transform="translate(0 -2.99)"/><path d="M26,49.49h.15v.13l0,0v-.12h.22l0,1.43a.1.1,0,0,0,0,.05l0,0V51l0,.34,1.13-.06a.36.36,0,0,0,0-.11l0-.21,0,0,0-.05h-.05v-.75h0v-.23s0-.07,0-.11v-.34l1.15,0v2.46h0a.2.2,0,0,0-.08,0v.07h.08a.2.2,0,0,1,0,.11v.23H28.7a.36.36,0,0,1,0-.11l0,0v.11h0l.06,0,0,.09v0H28.7a.15.15,0,0,1-.09-.06l0,0a.09.09,0,0,0,0,0s0,.06,0,.1v.19s0,0,0,0v-.21h.06l.06,0,0,0v.21l0,.11v.52l-.08,0v-.05a.36.36,0,0,0,0-.09v0l-.07,0,0,.07v.12l-.09,0v-.12l0,0,0,0v.06l0,.05,0,.11-.07,0s0-.08,0-.1l-.07-.08v.14l0,.09-.05.08a.11.11,0,0,1,.08.07v.09H27.6v-1.1h.05v-.07l-.06,0v-.17l.12,0,.1-.05,0,0-.18,0v0a.43.43,0,0,1,0-.11.42.42,0,0,0,0-.1l-.11,0-.9,0h0l-.09,0v.2l-.05,0h0a0,0,0,0,0,0,0,.13.13,0,0,1,0,.1l0,1.19,0,0a.11.11,0,0,1-.09,0h.06a.14.14,0,0,0,0-.06.18.18,0,0,0-.09.06l0,0,0,0a.19.19,0,0,0-.06-.07l-.09.06h-.12v0l-.05,0,0-.09a.33.33,0,0,1,0,.06l-.12,0v0l-.1,0-.08,0a.32.32,0,0,0-.09,0v0a.21.21,0,0,1-.1.06.17.17,0,0,1,0-.1V52.52h.06l.13,0a.74.74,0,0,0,0,.12l0-.09h.14a.24.24,0,0,0,.09-.06h.11v0l.09.06,0-.09.12,0a.21.21,0,0,0,0-.06h0l-.13,0-.05,0h-.2v0h-.13a.17.17,0,0,1-.1,0,.2.2,0,0,1-.11,0l-.12,0v0a.13.13,0,0,1,0-.08v-.34l.05,0a.12.12,0,0,1,0-.09v-.73l0,0,0,0,0-.06s0-.08,0-.12v-.38h.06v0a.43.43,0,0,1,0-.05h-.05l-.05-.07a.62.62,0,0,1,0,.13V49.64l0,.7,0,0s0-.05.08-.07l.07-.08,0,0,0-.1,0,0V50a.08.08,0,0,0,.06,0,.23.23,0,0,1,.07-.07,0,0,0,0,0,0,0l0,0-.08,0,0-.06.05-.15h0v.12h0l0,0,0-.06.12-.05a.24.24,0,0,1,.1.05l.08.06.07,0,0,0h-.08l0-.06.06-.07a.36.36,0,0,0,0-.11S26,49.53,26,49.49Zm-.73,2.18v.22l.07-.09v0Zm.09-1.12v0h0Zm0,.24v.05h.05A.1.1,0,0,0,25.39,50.79Zm.06.83a.1.1,0,0,0,0,.05h.07A.05.05,0,0,0,25.45,51.62Zm0,1.88,0,.06h0s0,0,0,0Zm0-.1v.05A.11.11,0,0,0,25.42,53.4Zm.06-3,0,.13s0,0,0,.06l0,0a.14.14,0,0,0,0-.06l0-.14Zm0,.38v.06l0,0,0-.05Zm0,.27,0,.05h0v0Zm0,.14v.07s0,0,0,0l0-.07A.09.09,0,0,0,25.47,51.22Zm0,.72s0,0,0,0Zm0,.77a.05.05,0,0,0,0,0v0Zm0-1.73,0,.06h.05v0Zm.14-.36,0,.09h-.11a.1.1,0,0,0,.08,0l0,.08a0,0,0,0,0,0,0v0l0-.22Zm-.11-.31h0Zm0,2v.06h.07A.11.11,0,0,0,25.5,52.34Zm0,1.47s0,0,.05,0h-.05Zm.12-2.05,0,.06,0,0a.22.22,0,0,0,0-.08Zm0-.43v.24a.25.25,0,0,0,0,.07v-.25A.16.16,0,0,1,25.61,51.33Zm0-.93v.08a0,0,0,0,0,0,0v-.1Zm0,.55v.32l0-.17V51A.21.21,0,0,0,25.61,51Zm0,1.15a.31.31,0,0,0,0,.1v0h0v-.08S25.62,52.12,25.61,52.1Zm0-1.8v0h0Zm0,3.3v0l0,0Zm0-.47a.16.16,0,0,0,0,.07v-.06Zm0-.52v.22l0,0a.5.5,0,0,0,0-.12S25.66,52.64,25.63,52.61Zm0-.75v0h.05l0,0Zm0,1.54,0,.15v-.14ZM25.71,50a.09.09,0,0,0,0,0s0,0,0,0v0Zm.05.19,0,.05h0l0,0Zm0-.67v0h-.07Zm-.1,4.24h.08l0,0h0S25.72,53.8,25.71,53.79Zm.07-4.29h0l0,0Zm0,3.27v.06l.05,0v0Zm0-2.16s0,0,.05,0A.07.07,0,0,0,25.79,50.61Zm.15,2.2-.07.07-.06,0,0,.08v.08h0l0-.09.06-.07.08-.08A.11.11,0,0,0,25.94,52.81Zm-.15.36a0,0,0,0,0,.05,0v0Zm0-1.76s0,0,0,0S25.83,51.41,25.82,51.41Zm0,1.86v.07h.06v0Zm0-3.17,0,0S25.85,50.11,25.83,50.1Zm0-.16,0,0A0,0,0,0,0,25.86,49.94Zm0,2.27,0,0Zm0,1.21h0v.08a.2.2,0,0,0,.06.07s0,0,0-.08v-.08Zm0-2.36s0,0,0,0v0Zm0,1.61,0,0h.08S25.92,52.68,25.9,52.67Zm0-3.05h0l0,0v0Zm0,.86v0H26A.11.11,0,0,0,25.91,50.48Zm0-.38s0,0,.07,0l.09,0H26v0Zm0,3.65a.06.06,0,0,1,0,.06H25.9Zm0-3.07s0,0,0,0h0A.05.05,0,0,0,26,50.68Zm0,.67,0,0Zm0-1.44.05,0Zm0,1.84v0h0v-.06H26Zm0-.11s0,0,0,0v0Zm0-.71,0,.18h0v-.18h0Zm0-.63v0l0,0Zm0,.87v.07l0,0,0,0,0-.06Zm0,.69v0h0S26,51.87,26,51.86Zm.05.24v0h0v0Zm0,.1,0,.07v-.08Zm0-1.71v.08h0a.14.14,0,0,0,0-.06Zm0,2.07v0h.1v0Zm.1.17-.07.07,0,0,0,0,.07,0Zm-.06.58v0Zm0-3.29v0h0l0,0Zm0,.11s0,0,0,0A.1.1,0,0,0,26.17,50.13Zm0,1.6,0,.08a.18.18,0,0,0,.07,0v-.09h0A.17.17,0,0,0,26.15,51.73Zm0-.9v.06h.06S26.21,50.84,26.18,50.83Zm.08-1.14-.07,0,.06.11v.06h0l.05-.05v-.08l0,0,0,0Zm-.06.78,0,0Zm0,3.29a.06.06,0,0,1,0,.05A.08.08,0,0,1,26.17,53.76Zm.06-1.13,0,0,0,0v0Zm0-.66s0,0,0,0h.05v0Zm-.05.54v0h0S26.24,52.51,26.21,52.51ZM26.26,50l0,.06h0a.18.18,0,0,1,.05.07v.14l0,0,.05-.17a.1.1,0,0,1-.08,0Zm0,2.12s0,0,0,0v0Zm0,.29,0,0v0Zm0-1.08v0l0,0v0Zm.07.88a.16.16,0,0,1-.07.07l.08,0,.07-.06Zm-.06-1.06h0S26.28,51.12,26.27,51.12ZM26.32,53l-.05,0,.07,0,.05,0Zm0,.4h0v.07h0l.05,0v-.05Zm0-3.14v.09l0,.16h.06v-.08l0-.06V50.3Zm0,2.31v.06h.05S26.36,52.58,26.32,52.58Zm0-1.55a.05.05,0,0,0,.06,0v0Zm0,2.14,0,0,0,0v0Zm0-2.37v.05h0S26.38,50.82,26.37,50.8Zm0,.63h0Zm0,.14a.1.1,0,0,0,.06,0S26.4,51.58,26.36,51.57Zm0,.12v.1a.14.14,0,0,0,0,.06V51.7Zm0,.24V52h.06a.1.1,0,0,0,.06.05s0-.06,0-.07Zm0,.13v0h0S26.38,52.07,26.36,52.06Zm0,1.46v0h0S26.36,53.54,26.36,53.52Zm.09-1.7,0,.06A.09.09,0,0,0,26.45,51.82Zm0-.11v0h0S26.5,51.72,26.48,51.71Zm.05-.28h0Zm.32.49a0,0,0,0,0,0,0S26.85,51.93,26.85,51.92Zm0,.1s0,0,0,0S26.88,52,26.85,52Zm.32,0-.13,0-.06,0v0h0l.06,0,.05,0A.11.11,0,0,0,27.17,52ZM27,51.4s0,0,0,0Zm.44,0v0h0Zm.05.28v0h0v0Zm0,.24V52h0V51.9Zm0-.13v0h0a.11.11,0,0,1,0,0Zm.09-.08v0s0,0,0,0Zm0-2a0,0,0,0,0,0,0Zm0,1.8h0Zm0,.68v0h0v0Zm.07,0,0,0S27.82,52.12,27.8,52.12Zm.1-2.37v.14l-.05,0,0,0h.05v-.21Zm0,2.51a.16.16,0,0,0,0,.07h.06l0-.06ZM28,50.5s0,.06,0,.1h-.08a.16.16,0,0,0,0,.08H28v-.07A.22.22,0,0,0,28,50.5Zm0-.51a.29.29,0,0,0,0,.09v0l0,.06v0l0,.11,0,.1a.11.11,0,0,0,0-.08v-.24h0A.17.17,0,0,0,27.92,50Zm0,1.6,0,0h0v0Zm0,.8.06,0A.06.06,0,0,0,27.9,52.39ZM28,50.75v.18L28,51l0,0,0-.08v-.08l0-.07A.1.1,0,0,0,28,50.75Zm0,1,.07.33v.08l0,.06,0,0s0,0,0,0V52.1l-.05-.35Zm0-.67,0,.1.05.35,0,0a.22.22,0,0,1,.05.08c0,.22.07.32.12.54h0l0,0,.05.29a.07.07,0,0,0,0,0V52.3l0-.42v0h-.09a.13.13,0,0,1-.06-.07v-.22l-.05-.07-.05-.07,0-.09,0-.27Zm0,1.74v0l0,0Zm0-.51v0l0,0Zm.17-2.54-.09,0,0,.09v.16h.05a.46.46,0,0,1,0,.09l0,.18,0,.07a.08.08,0,0,0,0,0l0-.2,0-.09,0-.07h0v-.14l0,0h.05v0Zm-.12.4v.16h0v-.09A.19.19,0,0,0,28.07,50.16Zm0,.3s0,0,.06,0A.07.07,0,0,0,28.07,50.46Zm0,1.12a.11.11,0,0,0,0,.08A.31.31,0,0,0,28.08,51.58Zm.06-.9v.06l0,0v.11a.22.22,0,0,1,0,.1l.07,0,0-.1,0-.08s0,0,0,0l0,0h-.12Zm0-1v0h0l0,0Zm0,2.69a.13.13,0,0,0,0,.09v.08l0,0v.17l.11.38h0v-.12l-.13-.38,0-.1,0-.07A.06.06,0,0,0,28.19,52.32Zm0-1.83v.11l0,0,0,0,0-.09Zm0,2.6v.08h0V53.1Zm0-2.06,0,.25v.07l0,0v0l.06.13s0,0,0,0l0,0-.11-.44S28.26,51,28.24,51Zm0,.85s.07,0,.07.08a.22.22,0,0,1,0,.1l0-.07v-.11Zm0-1s0,0,0,0v0Zm.43.61v.06h0l-.28.09s0,0-.05,0l0,.06v.05h0V51.7l.28-.08.05,0,0-.06v0Zm-.33,1,0,.09,0,.07,0,.07,0,.06,0,.26,0,.07,0,0-.07-.49A.24.24,0,0,0,28.37,52.53Zm0-2.1.05,0A0,0,0,0,0,28.34,50.43Zm0,2.7v0l0,0Zm0-3.2.07,0Zm.39,3.37,0,.06v.37H28.4s0-.07,0-.11a.29.29,0,0,0,0-.09v0h.08v.14h0a.09.09,0,0,0,.06,0v0h0v-.06s0-.06,0-.11l.08-.05Zm-.37-1.48h0Zm0-1.11v.07l.05,0v-.08Zm0,.2s0,.05,0,.08h0a.29.29,0,0,0,0-.09Zm0,.29a.06.06,0,0,0,0,0v0Zm0,.15a.43.43,0,0,0,0,0h.05v0ZM28.59,50l0,0h-.08l.05,0,.09,0Zm-.11,1.44v.06l.15,0,0,0Zm0,.22,0,.08v0h0v-.07Zm0,.84v0Zm0-.49v.07h0v-.06Zm.06.73h0v.1a.14.14,0,0,0,.05.09.36.36,0,0,0,0-.11v-.09Zm0-1.5v0s0,0,0,0a.43.43,0,0,0,0-.05Zm.07.41,0,.05h0l0,0Zm0,1.74v.08l.06,0v-.09S28.68,53.43,28.64,53.43Zm0-1.42v0h0l0,0S28.68,52,28.67,52Zm0,1.6a.08.08,0,0,0,.05,0v0Z" transform="translate(0 -2.99)"/><path d="M30.78,50.35a.08.08,0,0,0,.07,0,.14.14,0,0,1,0,.07l0,.06a.08.08,0,0,0,0,0h0l.09,0,0-.06s0,0,0-.08.05,0,.05.07l0,.08,0,.08a.12.12,0,0,0,.05.05l.07,0,0,.08a.25.25,0,0,0,0,.07l.07,0,.17.07.15.09.08,0,.36.22.06,0,.08,0,.07,0,.06.06a.29.29,0,0,0,0,.09l.07,0,.09,0,.11.11.06.06.06.06,0,.08.05.06.13.21,0,.08,0,0a0,0,0,0,1,0,0,.2.2,0,0,1,0,.09v.09h0v.07h-.08v0l.09,0v0h-.08a0,0,0,0,1,0,0,.25.25,0,0,0,0-.07.09.09,0,0,0,0,.06.1.1,0,0,0,0,.07l0,0,0,.1a.05.05,0,0,0,0,0v0l.07,0,0,.06,0,.07v.08h0a.1.1,0,0,0,0,.06l0,.08a.1.1,0,0,1,0,.07s0,0,0,.07l0,.06-.07,0-.17.16-.06,0-.4.17-.38.07h-.33l-.19,0h-.24v0s0,0,0-.06h-.11l-.28-.07-.09,0-.22-.12-.07,0-.05-.06,0-.07a.1.1,0,0,0-.06,0l0-.07,0,0,0,0L29.88,53l0-.07a.18.18,0,0,0,.07,0H30v0a.11.11,0,0,0,.07,0h-.3v0l.05,0s-.05,0-.05-.06l0-.09,0-.39.09,0,0,.08a.13.13,0,0,0,.05.06v-.12H30a.07.07,0,0,1,.06,0l0,0,0,0h0v.06h0v.08h0l0,.08,0,.08s0,0-.05,0l-.08,0s.06,0,.09,0a.09.09,0,0,0,.07,0v.08h0l0,.08.05.07.07,0,.08,0,0,0h-.06l-.09,0,0,0,.1,0h.08l.07,0,0-.07a.08.08,0,0,0,.05-.05l0,0,0,0,.07,0,.1,0a.08.08,0,0,0,.08,0H31l0,0a.09.09,0,0,0-.07,0,.21.21,0,0,0-.11,0h-.1l0,0,0-.07a.1.1,0,0,0-.06.05l-.1,0h-.11a.24.24,0,0,0,0-.08l0-.08a.09.09,0,0,1,.07-.06h0v-.06h.05v0l-.05,0v-.05l.07,0,.06,0v0l0,.07.08,0v0l0,0h0v-.07l.1,0h.12l.1,0,0,.48.06.06.14.09.09,0,.11,0h.1l.09,0,.08,0,0-.06,0-.08v-.18l0-.08-.16-.18-.14-.09-.08,0-.07,0-.09,0-.07,0-.08,0-.08,0,0-.06h.19l0,0H31l-.11,0h-.07v0l.06,0s.07,0,.1,0h.07a0,0,0,0,0,0,0H31a.11.11,0,0,0-.08,0l-.06,0-.07,0-.06,0h0v0l.06,0,0,0,0-.06,0,0a.31.31,0,0,0,0-.08l0,0v.08l0,0v-.09h0l.07,0,.05-.06a.08.08,0,0,0,0-.06.09.09,0,0,1-.07,0l.06-.06.05,0,0,0,.08,0,0,0,0,0v0h0l.05-.07.09,0,.09,0h.05l0,0h0v0h0l-.18,0-.07,0h-.16v0H31L31,51v0h0l-.17,0a.19.19,0,0,1-.08,0l-.1,0h-.07l0-.13v-.09l0,0h0l.06,0H30.6v0l0,0,.05-.06.05-.06Zm-.87,2.08a.31.31,0,0,1,0,.08l0,.06v0h.05l.05.06h0l0-.14,0-.09A.06.06,0,0,0,29.91,52.43Zm0-1.76.07,0,0,0s0,0,0,0l-.08,0Zm.44-.33h.11a.1.1,0,0,1,0,.07v.08l-.05.06h-.08v0h-.15a.07.07,0,0,0,0,0h.07v.08l0,.05v.07h-.11V51l0,0,0,0H30s-.05,0-.06,0v-.06H30l0,0h.06v0L30,50.78l0-.06a.05.05,0,0,0,0,0l-.09,0-.07,0v0l0,0a.16.16,0,0,0,0-.07l0-.06h.08l.06,0,0-.08.1,0ZM30,53.1v0h0Zm0-2.73.06,0H30Zm0-.14s0,0,0,.05A0,0,0,0,1,30.06,50.23Zm.05,2a.09.09,0,0,1,.07,0v.22h0l0-.06,0,0Zm0-1.6h0Zm0,2.64s0,0,0,0ZM30.16,50l0,.06v0h-.1v0Zm0,3.14v0h0v0h0Zm1-3.81h.31s0,0,.06,0l0,0,0,0,.14,0v0a.25.25,0,0,1,0,.08v.08a.25.25,0,0,0,0,.07l0,0h0v0h0a.1.1,0,0,0,0-.05l0-.25h.07l0,.07.06,0,.24,0v0h0s0,0,0,0l.06,0,.06.05,0,0,0,.06,0,0h0a.05.05,0,0,0,0,0l-.07,0v0l.06,0,.08,0,.18.12.1.11.14.24.05.14,0,.16v.1l0,.18h-.27l-.07,0H32.5v0a.09.09,0,0,0,0-.07h0v0h0l0,0v0h0a0,0,0,0,0,0,0l0,.05,0,.07a.05.05,0,0,1,0,0,.13.13,0,0,0,0-.06h-.09l-.06,0-.09,0h-.15v0l.07,0H32v0h-.14l-.06,0-.05-.06,0-.14,0-.06,0,0-.07,0-.08,0h-.1l-.07,0H31.2l-.17,0s0,0-.05-.05a.07.07,0,0,0,0,.06.11.11,0,0,1-.07,0h-.15v0l.06,0-.05,0a.07.07,0,0,1,0,0l-.05,0h-.06V50l-.05,0h-.09l0,0h.1v0a.14.14,0,0,1,0,.06v.06l-.21,0h-.09l0-.05,0-.06,0,0,.06,0,0-.07a0,0,0,0,0,.05,0l-.05,0,0,0,0,0,0-.06-.07,0s0,0,0-.06l.09,0h0l0,0,.06,0,.18-.08,0,0s0,0,0-.05l.07,0,.06,0,.15-.06.17,0h.1Zm-.95,1.6h0v0a.12.12,0,0,1-.05.05.07.07,0,0,1,0-.05A.08.08,0,0,0,30.21,50.93Zm0-1,0,0,0,0Zm0,.24a.1.1,0,0,0,0,0v0Zm0,.31v0h0S30.24,50.5,30.23,50.49Zm0,2h.1v0h-.07Zm0-.28h.07v.11l0,0,0,.06a.09.09,0,0,1-.06,0v-.08Zm0-2.43v.06h.06v0Zm0,.83h.09s0,0,0,0v.07l0,0-.06,0,0-.05v0h0Zm0,2.63v.06h0l.06,0,.07,0h.31s0,0,0,0a.1.1,0,0,0-.05,0l-.07,0,0,0-.05,0-.06,0,0,0h-.09l-.07,0Zm.11-.41v.07h0Zm0,.21v.06h0v-.05Zm0-1.8h0v0h0Zm0,1.2v.07h0v0l0,0h0l.06,0a.13.13,0,0,0,0-.06l0,0,0,0Zm0-2.69v.06l.05.1,0,0s0,0,0-.06l0,0v-.07Zm0,1.09,0,0h0l0,0Zm.08,2,0,0h0l.07,0S30.62,52.85,30.59,52.84Zm0,.14v0h0S30.59,53,30.59,53Zm0-3.19v.08h0v-.08Zm0,.32a.12.12,0,0,1,.08,0l0,.07h-.07v-.1Zm0,.81.15,0,0,0-.1,0h0Zm0,2.61,0,0h0A0,0,0,0,0,30.65,53.53Zm0-1.15.05.1a.05.05,0,0,0,0,0l0,0v0s0,0,0,0h0l0,0,0,0Zm0-2.11h0s0,0,0,0l0,0Zm0-.37,0,0v0h0v0Zm.16,3.53-.12,0a.09.09,0,0,0,0,.07h0l.11,0h0A.15.15,0,0,0,30.82,53.43Zm-.12-.9,0,.06h.06l0,0Zm0-1.84s0,0,0,0Zm0,.1v0h0S30.73,50.79,30.7,50.79Zm0,.5v.05l.05,0v0Zm0,1.5v.1h0A.18.18,0,0,0,30.74,52.79Zm0,.21h0v0h0v0Zm0-3.43v0l0,0h0Zm0,1.91v0h0Zm.07-1.23h0a0,0,0,0,1,0,0l-.05,0s0,0,0,0Zm0,2.89,0,.06h0v-.05ZM30.86,50l-.06,0a.05.05,0,0,0,0,0l.06,0v0Zm0,.1v0h0Zm0,1.24v.06h.07A.12.12,0,0,0,30.84,51.32Zm0,1.14v0h0v0Zm0-2.58v0h0v0Zm0-.16v0h0l0,0h-.06Zm.05,3.74,0,.06h0a0,0,0,0,0,0,0l0,0A.13.13,0,0,0,30.93,53.46Zm0-2.87a.12.12,0,0,0-.07,0l.11,0Zm-.05,2.61v.07h0v0Zm0-2.47,0,.05h0a.08.08,0,0,0,0,0Zm0,.75a.05.05,0,0,0,0,0Zm0,1.31v0h0S30.94,52.79,30.93,52.79Zm0-2a.15.15,0,0,0,0,.07H31a0,0,0,0,0,0,0v0Zm0,.79.07,0h.06v0Zm.14-1.42,0,.07a.11.11,0,0,1-.06.07l0,0s0,0,0-.06S31,50.21,31.07,50.19ZM31,53.05v0l0,0Zm0-1.69v0l0,0Zm.59-1.76-.17.06-.1,0a.07.07,0,0,0-.07,0l-.07.05-.08,0-.07,0,0,.06v0l.09,0,.07,0,.07,0,.16-.08.07,0,.08,0h0v0ZM31,49.52a.14.14,0,0,0,0,.06h.07l0,0,0,0Zm.1,3.64-.07,0v0l.11,0A.05.05,0,0,0,31.12,53.16Zm0-.35,0,0s0,0,0,0h0Zm0-1.92v0h0S31.09,50.89,31.08,50.89Zm0,.62,0,0v0Zm.05-.25v.05h.05Zm0-.24s0,0,0,0Zm0-1.58v.09s0,0,0,.06v-.1Zm0,.46V50h0l0-.08A.06.06,0,0,0,31.2,49.9Zm0,3.54v.06h.07Zm0-1.6,0,.12.06,0v0l0,0Zm.07-.65v.06h0A.09.09,0,0,0,31.31,51.19Zm0,2.44v0l0,0Zm0-.18,0,0h0Zm0-2,0,0h.08Zm0-1.45v.07h0A.06.06,0,0,0,31.38,50Zm.06,3.55,0,0h0l0,0Zm0-2.59,0,0Zm.07-1.48v0A0,0,0,0,1,31.49,49.51Zm0,1.62h0Zm0,.81v0h0Zm0,1.41v.08l0,0V53.4Zm.07-2.14h0s0,0,0,0,.05,0,.07,0h0Zm.53.56a.16.16,0,0,1-.06.08H32l-.21,0h-.14l-.05,0v0h.15l.14,0H32a.26.26,0,0,1,.12,0,.19.19,0,0,1,0,.09s0,0,.08.07h0l0-.06a.36.36,0,0,1-.05-.09s0,0,0,0V51.9a.11.11,0,0,1,0-.09Zm-.5-2.14.05,0Zm0-.19v0h0Zm0,4s0,0,0,0Zm.19-.59-.06.1-.05,0a.08.08,0,0,0,0,0v.07l.07,0,0,.09,0,0,0-.06h.06v-.06l0-.07v0h0l0,0v-.07Zm-.11.48v0Zm0-3.22v0h0v0Zm0,.29a.09.09,0,0,0,.06,0A.06.06,0,0,0,31.81,50.44Zm0-.54v0h0v0h.05V49.9Zm0,1.61v0l0,0Zm0,1.77a.14.14,0,0,0,0,.06v-.06Zm.08-1.3v0H32v0Zm0-2.35v.09h0l0-.05Zm0,2.88s0,0,0,0v0Zm.06-.35,0,0h0l0-.05Zm0-2.37v0h0v0Zm0,3.57s0,0,0,0Zm0-2.82,0,0h.06a.08.08,0,0,0,0,0Zm0,.8a.3.3,0,0,0,0,.1l0,.24h0v-.1a.29.29,0,0,1,0-.09v0l0,0v-.07Zm0-1.18s0,0,0,0A0,0,0,0,0,32,50.16Zm.07-.54h0v0h0s0,0,0-.05Zm0,2.62v0l0,0Zm0-2.48,0,.06s0,0,.07,0v-.05h0Zm.06,3,0,0a0,0,0,0,0,0,0A.06.06,0,0,0,32.17,52.8Zm.08-1.3a.1.1,0,0,0,0,0l0,.07v.07l0,.06h.06l0-.23Zm0,.78,0,0a.08.08,0,0,0,0,.05h0v-.07Zm0-.09,0,.06h0A.09.09,0,0,0,32.18,52.19Zm0,.22v.06h0S32.23,52.42,32.2,52.41Zm0,.92v0h0v0Zm0-3.59s0,0,0,0a.05.05,0,0,0,0,0v-.06Zm0,1.7v.06h0A.12.12,0,0,0,32.27,51.44Zm0-1.39v.05h0S32.3,50.06,32.27,50.05Zm.09,2.18,0,0s0,0,0,0h0A.09.09,0,0,0,32.36,52.23Zm.13-2.43a.18.18,0,0,1-.05.08h-.08V50l0,0,.07,0s0,0,0,.08a.2.2,0,0,0,0-.08.09.09,0,0,0,0-.07S32.53,49.81,32.49,49.8Zm-.1,1.83v.07h0v0h0v-.08A.09.09,0,0,0,32.39,51.63Zm.16.37a.11.11,0,0,1-.09,0l-.06,0v.06l0,0h.07a.21.21,0,0,0,.08-.06.1.1,0,0,0,.08.06h.07l0,0a.14.14,0,0,1-.07-.08l0-.07Zm-.12-1.77v0h0Zm0,.16,0,0v0h0v-.1Zm0,1.93v.07h0v-.05Zm0-2.2,0,0h0l0,0Zm0,1.68,0,0S32.48,51.8,32.45,51.8Zm0-1.74h0Zm.12,2.15,0,0,0,0h0a.07.07,0,0,0,0,.06h.11v0Zm-.07.54a.1.1,0,0,0,0,0Zm0,.19V53h0l0-.06Zm0,.18v.05h0l.09,0a.06.06,0,0,0-.06,0Zm.09-.76-.06,0v.06h.08l0,0,.08,0Zm0-.46h0Zm.11,1.22v0S32.71,53.14,32.71,53.12Zm0-.62.06,0v0Zm.06-1.93s0,0,0,0h0v0Zm0,2.48v0h0Zm0-1v0l0,0v0Zm0,.08,0,0a.1.1,0,0,0,0,0s0,0,0-.05Zm0,.15v0a.05.05,0,0,0,0,0Zm0,.58s0,0,0,0Zm0-.44v0h0Zm.08-.14h0l0,0v0Z" transform="translate(0 -2.99)"/><path d="M34.66,49.58h.16l0,0h-.08l-.23.09,0,.07,0,0,0,0,0,0a.12.12,0,0,1,0-.05l.07,0h.19a.07.07,0,0,1,.06,0h-.06v0l.08,0,0-.09,0,0,0,.06,0,0,0,0,.07,0h.08l0,0,0,0s0,.05,0,.07l0-.06h.09v0h0l.14.08.08,0a.05.05,0,0,1,0,0H36a.09.09,0,0,0,.06,0l.07,0,.1,0h.08s0-.05.06-.05a.11.11,0,0,0,.07,0h.11l.27,0v.42a.12.12,0,0,1,0,.05l-.07,0s0,0-.05,0h.08l.06,0,0,0v.29a.21.21,0,0,1-.08,0l-.64,0a.14.14,0,0,0,0,.07v.27A.13.13,0,0,1,36,51H35.8l0-.12h0s0,0,0,.07h0l-.07,0-.08,0-.07,0a.13.13,0,0,1-.08,0l-.07,0s0,0,0,0V51h-.06a.13.13,0,0,1-.08,0l0,.06.07,0,.1,0v0l.17,0,.07,0h.11l.06,0,.27.07.05,0,0,0,0,0v0l0,.14,0,.06-.07.07,0,.05s0,0,0,0v0l0,.06-.05,0,.1.17h0a.07.07,0,0,0,0-.06v0l0-.06,0-.06,0,0v.06l0,.17,0,.07-.08,0v.07l0,.06s0,0,0,.07l0,0v0H36l0,0v0h0a.1.1,0,0,0,0,.05v.46a0,0,0,0,1,0,0l0,0v.06h0l0,.07h0a.19.19,0,0,1,0,.07h-.08L36,53l0,.09,0,.07-.07,0,0,0-.05,0,0,.07v.11l0,0-.06,0-.06,0,0,0h.1l0,.06,0,.13,0,0V53.5h-.05v0l0,0h0l-.09,0-.07,0-.05-.07-.08,0a.05.05,0,0,0,0,0h.1v0s0,0,0,.06l0,.06,0,.15a.11.11,0,0,1-.08,0h-.07V53.7h0a.06.06,0,0,1,0,0v.09H35a.12.12,0,0,1-.07,0l-.07-.23v-.08a.31.31,0,0,1,0-.08l0-.93.07,0,0,0v0h0l0,0v-.05h-.07l0,0,0-.07v0h.07v0H35l-.07,0-.06,0s0,0,0,0l0,0h0l0-.05,0-.06-.07,0v0h.08l-.06,0,0-.08h.1a.16.16,0,0,0,0-.07h0v-.05l.07,0v-.13h0l-.08,0h0v0h.12v0a.1.1,0,0,0-.08,0l0-.07a.24.24,0,0,1,0-.08.11.11,0,0,1,0-.07l.08,0,.05-.05,0,0h0s0,0,0,0l-.06,0a.1.1,0,0,1,0-.06.11.11,0,0,1,0,0l0,0v-.09a.14.14,0,0,0,0-.07l0-.07v-.25l-.14,0H34a.43.43,0,0,0,0,0v-.08a.19.19,0,0,1,0-.08v-.51l0,0,0,.08,0,0a.16.16,0,0,1,0-.07l-.07,0H34v-.1h.68Zm-.15.6a.31.31,0,0,0,0,.1l-.21,0a.3.3,0,0,0-.08-.08.41.41,0,0,1,0,.08.4.4,0,0,0-.13,0l.05.1,0,0,.08,0,.32,0h.33l.12,0v0l-.41,0s0,0,0,0v-.07Zm-.1-.42-.08,0h-.07l-.12,0,0,0,.23,0S34.41,49.78,34.41,49.76Zm0-.09,0,0Zm.24.45v0h0A0,0,0,0,0,34.6,50.12Zm.12-.08h0l0,0a.05.05,0,0,0,0-.05Zm0-.1a0,0,0,0,0,0,0Zm0,.24v.06h0A.14.14,0,0,0,34.72,50.18Zm0-.43s0,0,.06,0Zm0,.08,0,0h0v0Zm0,.17v0h0A.1.1,0,0,0,34.79,50Zm.06,1.55h0l0,0Zm0-.82,0,.05H35v-.05Zm0,.13a.1.1,0,0,0,.08.07S34.91,50.88,34.86,50.86Zm0,.39s0,0,0,0S34.89,51.25,34.86,51.25Zm0-1.43,0,0v0Zm0,.32v.06h0A.09.09,0,0,0,34.88,50.14Zm0,2.63v.08l0,.06V53A.15.15,0,0,0,35,53v-.16l0-.08Zm.08.29a.25.25,0,0,0,0,.07l0,.08.07,0,0,.07,0,0,0-.06v-.1A.31.31,0,0,0,35,53.06Zm0-3.16-.06,0a.05.05,0,0,0,0,0H35v0ZM35,53.39l0,.06v.06h0s0,0,0,.06v0l0,0,.07,0,0-.06,0-.07v0ZM35,52l0,0v0A.11.11,0,0,0,35,52Zm0,.2s0,0,0,0Zm0-1,0,0h0A.17.17,0,0,0,35,51.22Zm0-.39v0h.05Zm0,.11V51h0S35,51,35,50.94Zm0,.41v0h.06A.1.1,0,0,0,35,51.35Zm0-.65s0,0,0,0S35,50.7,35,50.7Zm0,.79v.11l.1,0,0-.09Zm0,1h0l.06,0,0-.06Zm0-2.85h0v0Zm0,3.23v0l0,0Zm0,.32s0,0,.06.05A.1.1,0,0,0,35.09,53.15Zm0-2.61v.1l0,0a.07.07,0,0,0,0,0Zm0,.24v0h.1v0Zm0,2.48,0,0h0l0,0Zm0-3.19,0,0Zm.07,2.7,0,0a.14.14,0,0,0,0,.06.11.11,0,0,0,0-.06v0Zm0-1.66v.08h0S35.19,51.14,35.18,51.11Zm0,.13v0l0,0Zm0,.87,0,0a.05.05,0,0,0,0,.05l0,0A.05.05,0,0,0,35.23,52.11Zm.05,1.08-.06.05.09,0,.06,0v0Zm-.06-1.71a.05.05,0,0,0,0,0v0Zm0,.78v.1l0,.08v-.18Zm0,.76s0,0,0,0Zm0-1.43v.06h.05Zm0-2h.09v.05h0Zm0,3v0h.05a.06.06,0,0,0-.05-.06Zm0,.76s0,0,.05,0v0Zm0-1.7v0h0Zm0,1.42v0Zm0-1.12,0,0S35.32,52,35.3,52Zm.07.85h0l0,0h0S35.38,52.85,35.37,52.85Zm.08-2.51,0,.08-.11.12v.06h0a.15.15,0,0,1,.06-.05l.06,0,0-.08v-.07Zm-.11.37v0h.06Zm0-.85,0,.09V50h0v-.1A.09.09,0,0,0,35.34,49.86Zm.06,3.82,0,0h0v0h0Zm0-3.57v0l.07,0v-.06Zm0,2.16v0h0Zm0-2v0h0S35.43,50.23,35.4,50.23Zm0,3.16v0h0Zm0-2.22v0h0A0,0,0,0,0,35.43,51.17Zm0,2.07,0,0Zm0-2.64a.09.09,0,0,0,0,.06h0s0,0,0,0Zm0,1.36,0,0S35.45,52,35.44,52Zm0,.76a.05.05,0,0,0,0,.05S35.48,52.73,35.46,52.72Zm0-3.08h.06v0h-.07Zm0,4.12.08,0h-.08Zm0-.66,0,0h0l0,0Zm0-1.58,0,0h0l0,0Zm0,1.77v.05h0v0Zm0-2.67a.35.35,0,0,0,0,.11.21.21,0,0,0,0,.1.2.2,0,0,0,0-.11v-.09Zm0-.71,0,.06h0v.09h0v-.16Zm0,.35v.06h0A.09.09,0,0,0,35.59,50.26Zm.06,2.29,0,.23h0l0-.07v0l.07,0,0,0h0s0,0-.07,0v-.06Zm0-1.36v.1l0,.05a.58.58,0,0,0,0-.15Zm0,.94,0,.08v.17s0,0,0,.08l0-.08V52.2A.14.14,0,0,0,35.65,52.13Zm0-.34,0,.06V52a.2.2,0,0,0,0,.07l0-.07v-.16A.14.14,0,0,0,35.65,51.79Zm0,1.28v0h0Zm0-3.24v0h0v0h0Zm0,1.76v.08h0V51.6Zm0,1.3V53a0,0,0,0,0,0,0V52.9Zm0-1.84a.09.09,0,0,0,.07.06v0Zm0-1.41h.05v0Zm.07,2.91,0,.06h.07v0Zm0-.16s0,0,.06,0v0Zm0,.37s0,0,0,.06l0,.13a.1.1,0,0,0,.05,0l0-.13a.14.14,0,0,1,0-.06Zm0-2v0h0S35.77,50.73,35.76,50.71Zm0,.76a0,0,0,0,0,0,0Zm0,.63a.43.43,0,0,0,0,.11h0V52.1Zm0,.21v0h0l0,0Zm0-.53v0h.05Zm0-1.84,0,.06,0,0v0Zm0,.11v0l0,0Zm.06,2.54,0,0,0,0,0,0Zm0,.25v0h0Zm0,.93h0v0l0,0h0v-.1Zm0-.28h0v0Zm0-2.62,0,0Zm0,.38,0,0A.05.05,0,0,0,35.91,51.25Zm.05-.53,0,0h0S36,50.72,36,50.72Zm0,1.65a.16.16,0,0,1,0,.1A.3.3,0,0,1,36,52.37Zm0-.43h0v0a.11.11,0,0,1,0,.07A.12.12,0,0,1,36,52Zm0,.79,0,0A.05.05,0,0,1,36,52.73Zm0-3a.1.1,0,0,1,.05,0A.1.1,0,0,1,36,49.71Zm.05.12v0l0,0Zm.06.07V50h0l0,0v0h0Zm.09.41v0h0A.07.07,0,0,0,36.24,50.31Zm.25-.5-.08.37v.1s0,0,0,0l.07-.37v-.1h0Zm.07.65a.07.07,0,0,0-.05,0l.06,0a.07.07,0,0,0,0,0A.09.09,0,0,0,36.56,50.46Z" transform="translate(0 -2.99)"/><path d="M39.21,49.82l0,.08.08.05.09,0,.07,0s0,0,0-.07l-.08,0-.08,0a0,0,0,0,1,0,0l.09,0,.07,0h0v0h.08l.09,0,.57.11.18.09.07.06a.46.46,0,0,1,0,.09v.05l0,0s.05,0,.05,0v0l.07,0,.07.05v.07a.2.2,0,0,1,.08,0v0h0l.07,0a.19.19,0,0,1,0,.09v.06H41l0,.07-.13,0v0l.11,0a.08.08,0,0,1,0,0V51l0,0a.2.2,0,0,1,0-.08l0,0V51l0,.17h0l0,.06-.06,0v0l0,0,0,0,0,0,.06,0h0v.11h.07l.11,0h.09l0,.17a.23.23,0,0,0,0,.09l0,.17h0l-.06-.05,0-.06a.2.2,0,0,1,0-.08v-.08l0-.07-.09,0s0,0,0,0v0l0,0v.1l0,.08H41l-.06,0,0,0,0,.17a.29.29,0,0,1,0,.09l-.07,0,0,.07.06.07v.06h0v.09s0,0,0,0h0v-.15a.16.16,0,0,0,0-.07l0-.28a.13.13,0,0,1,0-.08.13.13,0,0,1,.06.07.29.29,0,0,0,0,.09v.1l0,.1s0,0,.06.05l.06,0a.14.14,0,0,0,0-.06h0a.17.17,0,0,1,0-.05l0-.09.07,0,0,.12v.53a.11.11,0,0,0-.07,0,.12.12,0,0,1,.08,0v.11a.51.51,0,0,1,0,.09V53l0,.39a.28.28,0,0,1,0,.09l0,.17-.14.29-.14.18-.28.14-.35.09h-.22a.16.16,0,0,1-.08-.06l-.07-.05-.09,0-.08-.06h0l0,0,.07,0,.1,0v0h-.08l-.1,0-.06,0-.1,0-.23,0-.11,0-.11,0-.11,0-.29-.1A.13.13,0,0,1,38.7,54l0-.09v0h-.07V54h0l-.09,0,0,0a.07.07,0,0,1,0,0l-.08,0a.13.13,0,0,1,0-.06,0,0,0,0,0,0,0h-.1v0l0-.09v-.06h-.07v0a.12.12,0,0,1,.08,0l.07,0-.11,0,0-.08a.29.29,0,0,1,0-.09l0,.07,0,.05v-.22h0l-.05-.07.06-.06,0-.07,0-.05v0l0,0h-.06l0,.06a.12.12,0,0,1-.05-.07v0H38v0a.3.3,0,0,0,0-.1l0-.08,0-.07v-.15l.06,0a.08.08,0,0,1,0,.07h0v.05l0,.08,0,0v0l0,.06,0,0h.06l-.05-.07,0-.09-.05-.08h.07l.09,0v-.14l0-.09,0-.06.07,0v-.09l-.06,0a.24.24,0,0,0,0-.08v-.1h0a0,0,0,0,0-.05,0V52l0,.06,0,.29,0,.08a.12.12,0,0,1-.07,0l0-.08s0,0,0-.08l0-.09s0-.05,0-.08l0,0,0,0-.06.05,0,0h0l0,.08,0,.08h0a.09.09,0,0,1-.08,0l0-.08,0-.09v-.41l.07,0L38,51.58a.28.28,0,0,1,0-.1V51.4h0s0,0,0-.06l0-.08v-.18h0l0-.3a.64.64,0,0,0,0-.09l.07-.24.08-.15.14-.17.2-.13.07,0,.07,0,.49-.06ZM38,52.91h0v0h0Zm.06.2.09,0a.25.25,0,0,1,0,.09v.22s0,0,0-.06l-.05-.08Zm0-2v.07h.05v0Zm0-.3v0h0Zm0,.19v0Zm0,.35s0,0,0,0l.06,0v0Zm.13-.9a.54.54,0,0,1,0,.1.18.18,0,0,1-.05.07s0,0,0,.07,0,.05,0,.07a.25.25,0,0,0,0-.09l0-.08.06-.07v-.07Zm.56,2-.08,0-.07,0h-.09l-.23.08h-.08a.13.13,0,0,0,0,.06l.37-.07.14-.06a.12.12,0,0,0,.05,0l0,0h0Zm-.49-1.58v0l0,0h0v0Zm.24.38-.15,0a.1.1,0,0,0,0,0v0h0l.06,0,.06,0,.09,0v0Zm-.17,2.35s0,0,0,0S38.38,53.55,38.37,53.55Zm0-1.21v0h.07v0Zm0-2.15,0,0h0v0ZM38.53,53l-.09,0,0,.06h0l.09,0V53Zm.1.18v.06h-.07a.21.21,0,0,1-.08-.06h0v.06l0,.08h0l.08,0h.06l0,0,0-.08v-.06Zm-.21-1.59v0h0v0Zm0-.09v0s0,0,0,0Zm0-.79s0,0,0,0a.1.1,0,0,0,0,0l0-.05A0,0,0,0,0,38.46,50.73Zm.17,2-.08,0a.06.06,0,0,0,0,.06l0,.08,0,.09,0,0v-.16a.09.09,0,0,1,0-.06l0-.06Zm0,.69s0,0-.06,0l0,0,.05,0a.13.13,0,0,1,.06,0v.07h-.08l0,.07v.07l.08,0h.08v-.22l0-.13Zm-.12-3v.11h0v-.07A.09.09,0,0,0,38.48,50.43Zm1,.28-.05,0a.07.07,0,0,1-.06,0l-.51-.06-.34-.08v0l0,.05v0l.73.1v0l0,.13v.35l0,.16h-.09a.1.1,0,0,0,0,0,.25.25,0,0,0,0,.07l.08,0a.34.34,0,0,1,0,.08v.55a.25.25,0,0,1,0,.08l0,.06a.09.09,0,0,1,0,.07v.09l0,.06-.13,0a.07.07,0,0,0-.06,0v0h0l.07,0h.09l0,.05,0,.26,0,.07.08.13,0,.07.05,0,0,0,.06,0,.07,0h0l.08,0h.17l.06,0H40l.79.15h0l0,0-.05-.05L40,53.35l.06-.22,0-.42s0-.05,0-.05h.08a.17.17,0,0,0,0-.07l0-.06h-.06v0l0-.63,0-.07v-.06l0-.17h0l.06,0h.08l.06,0v0h0l-.16,0h0v-.06l0-.24a.26.26,0,0,0,0-.08l0-.06-.06-.14-.06,0,0-.06-.08,0Zm-.81,1.22a.1.1,0,0,0,0,0l0,0v0h-.07v.19h0s0,0,.06,0l.14,0h0a.11.11,0,0,0,0-.06l-.05,0-.07,0,0,0,.05,0a.05.05,0,0,0,0,0Zm-.12-1.88,0,.08v.22h.05l0,0,0,0v-.06l0,0v-.08A.16.16,0,0,0,38.52,50.05Zm.09,3.65,0,0h0Zm0-1.44s0,0,0,0Zm.06-.41a.1.1,0,0,0,0,0h.09A.06.06,0,0,0,38.67,51.85Zm0-.54,0,0Zm.06,1.83a.15.15,0,0,0,0,.07l.06,0v-.06Zm0-1.78,0,0,0,0h0l0,0Zm0-.33v.06h0V51Zm.09,2.86a.1.1,0,0,0,0,0S38.8,53.9,38.77,53.89Zm0-.2,0,0S38.8,53.69,38.78,53.69Zm0-1.42h0v0h0l0,0Zm0,1.19a.07.07,0,0,0,0,.06v-.06ZM39,53a.1.1,0,0,1,0,0h-.1v.06h0v0h0l.08,0H39A.24.24,0,0,0,39,53Zm-.15-.91,0,.06h0v0h-.1Zm0-.08v0h0v0h0Zm.59,1.79-.1,0-.08,0-.31.15a.05.05,0,0,0,0,0s0,0,0,0a.2.2,0,0,1,.09,0H39v0l0,0,.16,0,.06,0,.15-.07.07-.05,0,0Zm-.4-.13-.12,0a.17.17,0,0,0,0,.05l.07,0,.05,0Zm0-1.48,0,0s0,0,0,.08h0v-.09Zm.22,1-.07,0-.06,0H39l.05,0h.08l0,0h.09v-.06ZM39,51.9l0,0Zm.14.4-.09,0h0a.05.05,0,0,0,0,0l.1,0,0-.06Zm-.11.13v0h0v0h0Zm.09.87,0,.06,0,0h.12v-.1ZM39,50s0,0,0,0h.07v0Zm0,2.87s0,0,0,0A.05.05,0,0,0,39,52.82Zm0,.19s0,.05,0,.08h0a.09.09,0,0,0,0,0v0Zm.09-.06,0,0S39.18,53,39.16,53Zm.08.33h0v.05l0,0h.1V53.3Zm.14.82-.07,0v0h.06l.06,0A.09.09,0,0,0,39.38,54.1Zm-.09-3.48v.06h.06v0Zm.15,2.9a.06.06,0,0,0,0,.06l0,0h.09v0Zm0,.15v0Zm.13-.27h.06l0,0h0l0,0Zm0,.16v0h0v0Zm0-3.42h0a.09.09,0,0,0,0,.06h0v-.05Zm0,.16v.08h0v-.08h0Zm0-.4v0Zm0,.58,0,.06A.21.21,0,0,0,39.57,50.48Zm.06,3.18a.13.13,0,0,0,0,.06Zm0,.15v.09h0v0Zm0,.18v.07h.05V54Zm0,.26a.05.05,0,0,0,0,0Zm0-3.65v0h0Zm0,.15.05,0v0h0Zm.08-.13v.05h.07a.08.08,0,0,0,0-.06h-.09Zm.49-.49a.2.2,0,0,0,0,.07h0l-.09,0-.08,0-.23.11,0,0v0h.09l.08,0,.08,0,.24-.1.07,0v0Zm-.41.38h0A0,0,0,0,0,39.81,50.51Zm0-.47s0,0,0,.06h.08a.1.1,0,0,0,0-.05Zm0,3.47v.06H40v0ZM40,50.84H39.9v0h0l.06,0a0,0,0,0,0,.05,0Zm.22.13L40,51s0,0,0,.07h0L40.2,51l.07,0Zm-.12.26v0a.05.05,0,0,0,0,0Zm.18.6-.1,0v.06h0l.09,0,0-.05Zm0-1a.16.16,0,0,0-.1,0,.29.29,0,0,0,0,.09l.07,0,0,0Zm-.06.31a.1.1,0,0,0,0,.05l0,0h0v-.06Zm.05,3.07v.06h0l0,0Zm0-3.77,0,0Zm0,.93,0,0S40.2,51.36,40.19,51.35Zm.16-.26-.05,0h-.09a.15.15,0,0,0,0,.07.17.17,0,0,0,.06.06l0-.05h.09v-.07Zm-.12.63s0,0,0,.05A.09.09,0,0,0,40.23,51.72Zm.07-1.22s0,0-.07,0v0l.11,0,0,0Zm0,1.78v0h0Zm0-.33V52l0,0h0V52Zm.08.14v.07h.07S40.39,52.11,40.35,52.09Zm.06.12v0h0S40.42,52.22,40.41,52.21Zm.52-.62h-.1l-.22.07-.07,0-.08,0a.07.07,0,0,0,0,.06v0h0l.45-.14a.09.09,0,0,0,.07,0v0Zm-.52-.9v.06h0v0Zm0,1.2v0h0v0Zm0-1.41v0h0S40.43,50.49,40.41,50.48Zm0-.2s0,0,0,0S40.44,50.29,40.42,50.28ZM40.68,52l0,0,0,0a.21.21,0,0,0-.12,0h0a.13.13,0,0,0,0,.06l.09,0a.19.19,0,0,1,.1.05l.07,0v0a.17.17,0,0,1,0-.05V52ZM40.48,51v.07s0,0,0,0h0s0,0,0-.06Zm.05,1.79a.33.33,0,0,0,0,.06l0,0,0-.07Zm0-.47v0l.06,0h0v0h0Zm0,.81v.06h0v-.05Zm0-.24a.05.05,0,0,0,.05,0Zm.08-.69-.07,0h0l0,.05a.09.09,0,0,0,.07,0v0A0,0,0,0,0,40.63,52.18Zm-.06.39v0Zm0-2.16v.29l0,.06.06,0,0,0s0,0,0,0l0,0,0,0,0-.07h.1v-.13l-.06,0Zm.09.8,0,0,0,0,0,.08,0,.08s0,0,0,0h0l.07,0,0,0v0a.19.19,0,0,1-.05-.09A.07.07,0,0,0,40.64,51.21Zm.13-.34h-.09l-.06,0,0,0V51h0l.06,0,.09,0v-.13Zm-.17,1.05,0,0Zm0-1.45a0,0,0,0,1,0,0l0,0v0h0Zm.09,3.39v.06h0s0,0,0,.06l0,.09h0a.25.25,0,0,0,0,.07l0,0v-.2A.07.07,0,0,0,40.71,53.86Zm.2-1-.07,0-.15.06,0,0,.14,0a.07.07,0,0,0,0,0l0,0Zm-.19.78v.11h0v-.07Zm0-.26a.08.08,0,0,0,0,.05l.06,0s0,0,0-.05A.09.09,0,0,0,40.76,53.41Zm0-2.32,0,.06v0h.06l.06,0v0Zm.06,1.57,0,0,0,0,0,0A0,0,0,0,0,40.81,52.66Zm0-.09v0h0v0Zm0-.73v0h.08v0ZM40.84,54s0,0,0,0S40.87,54,40.84,54Zm0-.63v0H41v0Zm0-2.71v0h0Zm.25,2.86-.06.07,0,.07,0,.1v.07h0a.36.36,0,0,1,0-.09l0-.08.06-.06S41.13,53.54,41.1,53.51Zm0-2.76a.22.22,0,0,1,0,.08l.07.18v.09h0a.18.18,0,0,1-.08,0l0-.09v-.22Zm0,2.12v0s0,0,0,0A.1.1,0,0,0,41.1,52.87Zm0,.22v.06h.06v0Zm0,.34v0h0Zm0-2.16h0v0h0Z" transform="translate(0 -2.99)"/><path d="M42.28,50.3l.63.11a.05.05,0,0,1,0,.05l0,.06s0,0,.05,0l0,0h.09l.06,0,.05,0a.1.1,0,0,1,0,0v.07l0,0s0,0,0,.07l-.05,0,0,.06.06,0a.08.08,0,0,0,0,0,.11.11,0,0,0,0,0l.07,0,.05,0,.14.06.11.08,0,.06,0,0,0,.11,0,0-.07,0a.11.11,0,0,0,0,0l.06,0s0,0,0,0a.1.1,0,0,1,0,.05h-.1l0,0h.07v0a.09.09,0,0,0,0,.06l.07,0v.06h0l0,0L44,52l0,.05,0,.06H44a.17.17,0,0,0,0,.05l0,0,.07,0,.05,0,0,.06,0,0-.09,0v0l.07,0,0,0s0,.06,0,.08l0,0a.06.06,0,0,1,0,0l0,0v.07a.19.19,0,0,0,0,.07l.06,0,0,0,0,0h0v0l0,0,0,.07,0,0s0,0,.05,0l0,.06,0,0a.1.1,0,0,1,0-.05l-.05,0,0,0s0,0,0,0l0,0,.06,0,.05.05,0,0,0,.07a.11.11,0,0,0,0,.06s0,0,.06,0l.05-.11v-.06h0a.12.12,0,0,1-.05-.05v-.91l0,0a.14.14,0,0,0,0-.06l0-.06,0-1.42h.16l1,.19a.19.19,0,0,1,0,.07l.07,2.43v.06l-.06,0,0,0,0,0a.14.14,0,0,0,0,.06h.06l0,.06V54l-.13,0,0-.07h-.07l0,.06s0,0,0,0l.06,0h.07v0s0,0,0,0h0l0,.82a.07.07,0,0,1,0,.06l-.06,0s0-.07,0-.1l0-.06,0,0h0s0,0,0,0l0,0,0,.07V55h-.07a.06.06,0,0,1,0-.06.19.19,0,0,0,0-.07l0,0a.08.08,0,0,0,0,0v0h0v0h0l-.05,0a.12.12,0,0,0,0,0,.25.25,0,0,0,0-.07l-.06,0,0,.05v.06l0,.06.08.11,0,.06.06,0a.12.12,0,0,1,.05,0l0,0,.06,0a.06.06,0,0,0,.05,0l0-.13v0h0L45.9,55v.42L45,55.23l0,0,0-.06,0-.2h0l.24,0v-.07L45,54.78l0,0h0l-.16-.06,0,0s0,0,0,0h.08l.06,0,.07,0,0-.06,0,0-.16-.14h-.08s0,0,0,0h-.15l0-.05,0,0a0,0,0,0,1,0,0v0l0,0,0,0h.08l0,0s0,0,0-.05l0,0-.05,0a0,0,0,0,0,0,0v.06l-.06,0-.08,0-.07,0a.1.1,0,0,1,0,0l-.46-.89,0-.06L43.77,53l0-.06-.27-.53-.06,0v.76l0,.1,0,0,0,0h0l0,.1v.12h0v.09a.09.09,0,0,1,0,0l0,.06,0,.07v.31h-.07a.06.06,0,0,0,0,0l.07,0v.31s0,0,0,0l0,0s0,0,0,0l0,0,0,0,0,.07v.15h-.06l0,0s0,0,0,0a.11.11,0,0,0,0,0l0,0h-.07l0,0,0-.06h-.06l0,0-.09,0,0,0,0,0,0,0,0-.06v0h-.14a.21.21,0,0,1-.08,0l-.06,0-.05,0,0,0,0,0h0l0,.06h-.12l0-1.21a.2.2,0,0,1,0-.07l.17,0a.64.64,0,0,1,0,.07v0h0l0,0,0,0h.16l.06,0h.06l.07,0,.13.07v-.06h.07l.07,0,0,0s0,0,0,0l-.07,0H43l-.06,0-.15-.06H42.6l-.09,0-.15-.05a0,0,0,0,0,0,0l0,0v-.39s0,0,0,0,0,0,0,0V52l0,.07,0,0,0-.13,0-.43,0,0,.05,0v-.06l-.05,0,0-.05,0,0v.21l0,0,0-1v0l0,.15v.26h0l0,0,0,0,.06,0h.06v-.14h0v0l0,0-.1-.25,0-.06,0,0a.09.09,0,0,1,0-.06Zm0,1.42v0Zm0-.46h0a.08.08,0,0,0,0,0,.07.07,0,0,0,0,0Zm0,.87v.06h0Zm0,.12v.06h0A.13.13,0,0,0,42.3,52.25Zm0,.27v.22l.08-.09,0,0A.37.37,0,0,0,42.31,52.52Zm0,.51v.06h0V53Zm0,.43v0h0A.08.08,0,0,0,42.32,53.46Zm0-2.82v0h0Zm.07.73h0l0,0v0Zm0,.24v0h0v0Zm.06.87v0h.05v0Zm0,2v0h0v-.05Zm0-.1v0Zm0-3.08,0,.15v.07l.06,0v-.14l0-.07Zm0,.69v0h0Zm0,.12v.12h0v-.08S42.47,52.08,42.46,52.06Zm0-.41a.08.08,0,0,0,0,.05h0a.08.08,0,0,0,0-.05Zm0,.18,0,.06h.05A.1.1,0,0,0,42.45,51.83Zm0,1,0,0S42.49,52.83,42.47,52.83Zm0,.79v0l0,0Zm.12-2.15a.19.19,0,0,0,0,.08l0,0h-.1l0,0s0,0,.05.07v0h.06l0-.23Zm-.1,1.77a.25.25,0,0,0,0,.07h.07s0,0,0,0Zm0,1.53h.05l-.05,0Zm-.08-4.4,0,.1,0,.07.06.08,0,0h0a.07.07,0,0,0,0,0h0v0l-.11-.14Zm.13,2.3v0h0v0h0a.17.17,0,0,0,0-.07Zm0-.84v.24l0,0h0V52l0-.14Zm0,.43v.09h0v-.08Zm0,.77,0,.08a.07.07,0,0,0,0,0,.19.19,0,0,0,0-.07A.08.08,0,0,0,42.63,53Zm0-1.75v.07h0S42.6,51.31,42.59,51.28Zm.07,2.29,0,.2h0v-.11S42.69,53.59,42.66,53.57Zm0,.52s0,0,0,.07A.1.1,0,0,0,42.67,54.09Zm0,.29v.09l0,0v-.08A.06.06,0,0,0,42.68,54.38Zm0-1.59a.09.09,0,0,0-.06,0h0S42.71,52.81,42.71,52.79Zm-.07-1.86,0,0Zm.1.17h0v0A.08.08,0,0,0,42.74,51.1Zm0,3.69.08,0,0,0H42.8Zm0-1v0h0v0Zm.17.08-.07,0-.06,0,0,.15h0l0-.08a.1.1,0,0,1,0,0L43,53.9a.05.05,0,0,0,0,0Zm-.22-2.33a0,0,0,0,0,0,0S42.8,51.52,42.77,51.51Zm.08,2.66v0h0A.1.1,0,0,0,42.85,54.17Zm0,.11a.19.19,0,0,0,0,.07h0V54.3Zm0-1.93,0,0Zm0,.83v0Zm0,1.26,0,0v.06l.06.08v-.1A.15.15,0,0,0,42.91,54.44ZM42.84,52l0,0A.07.07,0,0,0,42.84,52Zm.08,1.67s0,0,0,0H43v0Zm0-.1,0,0H43S43,53.58,42.93,53.57Zm0-2.17v0h0S42.91,51.42,42.89,51.4Zm0-.79,0,0h0l.08,0h0v0h0Zm0,.41,0,0Zm.1,3.79a.09.09,0,0,1,.08.07H43Zm-.06-3.2,0,.08h0v0Zm0,.7a.05.05,0,0,0,0,0S43,52.33,43,52.31Zm0,.41v.05H43Zm0-.84A.36.36,0,0,0,43,52v.08h0l0,0,0-.17Zm0,.75a.05.05,0,0,0,0,0ZM43,51v0h0l0,0Zm0,1.1s0,0,0,.07v0h0l0-.06Zm0,.71v.06h0S43.05,52.87,43,52.85Zm.09.75,0,0s0,0,0,0l.09,0,0,0Zm-.06-2.14v.07h0v-.05Zm0,1.76a.19.19,0,0,0,0,.07A.19.19,0,0,0,43.1,53.22Zm.1.57-.07.06,0,.08h0a.06.06,0,0,0,.06,0V53.8Zm0,.59,0,0Zm0-1.63,0,0,.05,0a.13.13,0,0,0,.06.07v-.09A.15.15,0,0,0,43.18,52.75Zm0-1.64v0h0ZM43.23,53a.09.09,0,0,0,.06,0Zm.06.57h0v0h0v0Zm0,.13,0,0A.08.08,0,0,0,43.26,53.72Zm0-.56v0h.05a.07.07,0,0,0-.05,0Zm0,.29v0h0v0Zm0-1.12h0Zm0-1a.08.08,0,0,0,0,0Zm0,.18,0,.05A.05.05,0,0,0,43.33,51.51Zm0-.64a.09.09,0,0,1,.06.07A.13.13,0,0,1,43.37,50.87Zm.05.74,0,.1.21,0-.11-.08Zm0-.34a.25.25,0,0,0,0,.07l.07,0,0-.07Zm0-.21.05,0h-.05Zm.07.37v.06l.08,0A.13.13,0,0,0,43.55,51.43Zm.07.18h0Zm0,.22a.06.06,0,0,0,.06,0Zm.11.14h-.07l0,0,.06,0Zm0,.12v.07l0,0a.21.21,0,0,1,.1,0l0,.05V52.2H44v-.05l-.1,0h-.09Zm.08.59a.3.3,0,0,0,0,.08V52.7Zm.1.2h0l0,.06.07.06,0,0,0-.05Zm0-.5v.07l.09.1.06,0v0L44,52.48l0,0A.12.12,0,0,0,43.9,52.38Zm0,.69.06.09.06.08.07.08a.14.14,0,0,0,.08,0v-.06l0,0a.41.41,0,0,0,0-.09L44,53.11Zm.14-.46a.25.25,0,0,0,0,.07h0S44.1,52.63,44.07,52.61Zm.09.12a.1.1,0,0,0,.05.08v-.06Zm0,.34,0,.08,0,.05,0,0,.06,0a.19.19,0,0,0,0-.07l0-.06,0,0Zm.06-.16a.09.09,0,0,0,0,0Zm0,.94v0h0Zm0-.31s0,.07.08.08v0Zm.1.12a.08.08,0,0,0,0,.05h.05A.09.09,0,0,0,44.38,53.66Zm.26,0h0v.25a.07.07,0,0,1-.06,0,.08.08,0,0,0,0,.06l0,0,0,.08v0l0,0h0l0-.09.13.06v-.33h0l0,0v-.06A.25.25,0,0,0,44.64,53.68Zm-.06.33.05,0h-.07Zm0-.51v0l0,.07s0,0,.07,0v-.09A.19.19,0,0,0,44.58,53.5Zm.15-.43v0h0A0,0,0,0,0,44.73,53.07Zm.24.63a.09.09,0,0,1-.06,0l-.06,0h-.09s0,0,.05.06h.08l.06,0,.07,0v0Zm-.18-.21a.12.12,0,0,0,.05,0l.07,0a.1.1,0,0,0,0,0Zm.13-2.38,0,.07a.25.25,0,0,0,0,.07l0,0h-.09l.16,0v-.18A0,0,0,0,0,44.92,51.11ZM45,54.79v.07H45V54.8Zm0-2.9L45,52s0,0,0,0a0,0,0,0,0,0,0s0,0,0,0H45v-.19Zm-.06-.52,0,.05v0s0,.07,0,.11l0,.12,0,.1h0v-.22l0-.12A.18.18,0,0,0,44.93,51.37Zm0,1.65,0,0h0Zm.08.82,0,0Zm0-1.69v.18l0,.09a.08.08,0,0,0,0,0l0-.08V52.3a.29.29,0,0,0,0-.09A.21.21,0,0,0,45,52.15Zm0,1,.07.51.06,0-.07-.51A.09.09,0,0,0,45.06,53.18Zm0-.68h0l0,.33,0,.12.07,0,0,.1.1.46a.26.26,0,0,0,0,.11h0l0,.2s0,.08,0,.12l0,.05,0,0,0,0-.07-.41-.07,0,0-.11v-.06l0,0s0,0,0,0v-.09h-.08a.1.1,0,0,1-.06-.09V53l-.06-.09,0-.1-.06-.32Zm0,1.81,0,0S45.11,54.32,45.1,54.31Zm0-.53h0v0Zm0,1a.05.05,0,0,0,0,0h0v0Zm-.06-3.19v.1a.19.19,0,0,0,0,.08v-.1A.11.11,0,0,0,45.09,51.56Zm0,.32v0h0v0Zm0-.71-.06,0v.23l.07,0,0,.2,0,.1,0,.07,0-.22-.06-.19-.05-.07v-.12s0,0,.06,0A.12.12,0,0,0,45.15,51.17Zm0,1.88v0Zm.12-.92-.09,0a.21.21,0,0,1,0,.11v.17l.06,0s.06,0,.06,0h-.06v-.07a.22.22,0,0,1,0-.08A.16.16,0,0,0,45.27,52.13Zm0,1.69a.36.36,0,0,0,0,.11V54h0v.11a.29.29,0,0,0,0,.09l.1.33a.06.06,0,0,0,.06,0v-.1l-.09-.36a.2.2,0,0,0,0-.11s0-.07,0-.11,0,0,.06,0S45.3,53.84,45.26,53.82Zm-.09-2.77v0A0,0,0,0,0,45.17,51.05Zm.13,3.58v.08l0,0v-.07Zm-.06-2.7V52h0l0,0h0l0,0a.08.08,0,0,0,0,0Zm0,.57,0,.33,0,.08,0,.06,0,.08v0h0V53l0-.24-.07-.21A.21.21,0,0,0,45.29,52.5Zm.49.59v0h0l-.21,0h-.08s0,0,0,0l0,0a.09.09,0,0,0,0,.06v-.06h.29l.05,0,0,0v0Zm-.32,1a.52.52,0,0,1,0,.11h0l0,.09a.36.36,0,0,1,0,.11.84.84,0,0,0,0,.12h0l-.06-.33a.34.34,0,0,1,0-.1Zm0,.61,0,0h0A0,0,0,0,0,45.47,54.71Zm-.08-2.79v0l0,0Zm0-.53v0h.06Zm.12,3.2v.09a.09.09,0,0,0,.06.06l0-.1S45.55,54.6,45.52,54.59Zm0-2.39a.14.14,0,0,0,0,.07s0,0,0,.06a.13.13,0,0,0,0-.06A.13.13,0,0,0,45.48,52.2Zm0,.24v.07h.05v-.07Zm.07.3,0,0S45.54,52.75,45.55,52.74Zm0,.14v.06h0v0Zm.07-1.32-.11,0,0,0,.09,0h0S45.63,51.57,45.62,51.56Zm0,1.47a.08.08,0,0,0,0,0h0a.05.05,0,0,0,0,0Zm0,.23v.09l.06,0,0-.05,0,0Zm.05.37v.06l0,0v-.07Zm.08.78h0v.11a.37.37,0,0,0,.06.1l0-.07v0A.15.15,0,0,0,45.71,54.41Zm0-.37v.17s0,0,0,0a.2.2,0,0,0,0-.09V54Zm0-1.18a.11.11,0,0,0,0,0v0Zm0,.2,0,0Zm.1,2v.09l.08.06v-.1A.13.13,0,0,0,45.79,55.08Zm0-1.79v0h0v0Zm0,.42v.06l0,.15h0a.3.3,0,0,0,0-.11Zm0-.07,0,0v0h0Zm.08,1.64v.06h0v-.05Z" transform="translate(0 -2.99)"/><path d="M47.32,51.19l1.42.33.12,0,.43.12h0l0,.07,0,.19,0,.56a.09.09,0,0,1,0,.06l-.66-.14v-.14h0v0h0l0,0-.08-.05,0,.07,0,.08h-.08l-.32-.09h0l-.11,0-.12,0a0,0,0,0,0,0,0l0,.1a.1.1,0,0,1,0,0l-.07,0v0l0,0,.09,0v.1l0,.07-.11,0-.07,0s0,0,0,0h.19l.06.07,0,.08V53l.5.09h0l.1.05.06.06v.17a.13.13,0,0,0,0,.08s0,0,0,0l0-.16h0l.08,0h.28l.08.06a.21.21,0,0,1,.08.06l0,.61v.15h-.21l-.12,0-.1,0L48.77,54v-.09a.14.14,0,0,1,0-.07l0-.2h-.06a.31.31,0,0,0,0,.1v.09l-.06,0a.12.12,0,0,0,0,.07l0,.08h0l-.6-.14H48l0,.31h-.09v0l0,0,.09,0v.49l0,0h.07l.43.08h0l.1,0h0a.16.16,0,0,1,.07.07v.2a.14.14,0,0,0,0,.06v-.28h.11L49,55h0l.31.07h.09v0l.08,0c0,.4,0,.59.08,1-1.07-.27-1.6-.39-2.67-.62l0-.09L46.79,53a.19.19,0,0,1,0-.07l.07.07v-.08H46.8v-.34l.06,0,0,.09v0l0,0v-.09l0-.08h-.07a.31.31,0,0,1,0-.1h0l.07,0,.06.07,0,0,0,0,0-.08a.18.18,0,0,1,0-.07v-.19h0s0,0,0,.06l0,.15v0h-.08v0s0,0,0-.05a.1.1,0,0,1,0,0v-.19l0-.09v-.51h.06l0,.11a.59.59,0,0,0,0,.08l.06,0,0-.06,0-.06v0a0,0,0,0,1,.05,0,.09.09,0,0,1,.06.06v.08h0s0,0,0-.05l0-.08v-.08h.07v0l.06.17,0,0,0,0,0,0v-.14h0l0-.09,0,0h0l0,0,0,0a.09.09,0,0,1-.06-.06l0-.09.08,0Zm-.59-.12.36.09,0,.06v.11l0,.08-.08,0V51.3l0-.1,0,0v.06l0,.2h0l-.24.06Zm0,.07,0,.07h0v-.05Zm0,.12v.07l0,.07h.05v-.08Zm.42,1.91v.07h-.29l0,0,0,0v0h0a.11.11,0,0,0,0,0H47l.13,0h.09l0,0,0-.05A.05.05,0,0,0,47.21,53.17Zm-.34-.36v0h0A0,0,0,0,0,46.87,52.81Zm0,.3,0,0,0,0A.11.11,0,0,0,46.91,53.11Zm.15.25H47l-.05,0h0l.11,0v0S47.07,53.37,47.06,53.36Zm-.17-1.5a.53.53,0,0,0,0,.13v.07H47l0-.09A.14.14,0,0,0,46.89,51.86Zm.1,3s0,0,0,.06h.1l-.07,0Zm0-1.26v0l0,0A.13.13,0,0,0,47,53.55Zm0,.12v0Zm0-.59,0,.05,0,0a.17.17,0,0,0,.06.06v-.08Zm0-.31a.05.05,0,0,0,0,0v0l0,0S47,52.77,47,52.77Zm.06.74v.05h0v0Zm0-1.79v.08l.1.52v.06h0s0-.06,0-.09,0,0,0-.07l-.05-.06,0-.09,0-.27Zm.05,2s0,0,0,0v0Zm0,.26V54h0l0-.06Zm0,.18a.13.13,0,0,0,0,.06s0,0,0,.06l0-.07Zm.06.89a.09.09,0,0,0,.06,0Zm-.06-2.55v.21l0,.22s0,.07,0,.11v.07l0,0h.09l0,0,0,.23a.16.16,0,0,0,0,.09l0,.09,0,.09,0,.21,0,.1,0,0V53.8l0-.21,0-.1,0,0,0,0a.62.62,0,0,1,0-.1l0-.1a.44.44,0,0,0,0-.1l0-.22a.62.62,0,0,1,0-.1v0l0,0,0-.23,0-.1A.07.07,0,0,0,47.14,52.46Zm.08.91,0,0,0,.17.09.31s0,0,0,.06h0l0-.22v-.09l0-.06,0-.07,0-.07A.21.21,0,0,0,47.22,53.37Zm0,1.13v0h0S47.24,54.51,47.22,54.5Zm-.07-2.76,0,0A.05.05,0,0,0,47.15,51.74Zm0,.12V52l.13.41,0,.16h-.06a.29.29,0,0,0,0,.09h0s.05,0,.05-.06v-.11h0v-.23l-.09-.31A.1.1,0,0,0,47.18,51.86Zm.07,1a.3.3,0,0,1,0,.1.34.34,0,0,1,0,.1h0a.21.21,0,0,1,0-.11A.29.29,0,0,1,47.25,52.87Zm0,1.16v0h0Zm.06.34-.06.06.06.08h0v-.06A.1.1,0,0,0,47.35,54.37Zm0-.35,0,.09,0,.07a.29.29,0,0,0,0,.09.25.25,0,0,0,.09,0h.07v0a.27.27,0,0,1-.07-.08l0-.11,0,0Zm0,.56v.09l0,.21,0,.1,0,.07v.16h-.05v0h0l.07,0V55a.15.15,0,0,0-.07-.07l0-.2,0-.09A.3.3,0,0,0,47.36,54.58Zm-.09-2.81a.19.19,0,0,0,0,.08h0v-.08Zm.19,3.57v0l0,0Zm0-.82s0,0,.05,0v0Zm0-1.75v.07l.06.38a.17.17,0,0,0,0,.07s0,0,0,0v-.08l-.07-.29v-.07l0,0Zm0,.57a.16.16,0,0,0,0,.09A.32.32,0,0,0,47.46,53.34Zm.07,1.37v.09a.16.16,0,0,0,0,.08v-.17Zm0-.71v.16l0,.08.05.06v-.17l0-.08A.1.1,0,0,0,47.54,54Zm0-1.32s0,0,0,0Zm0-.54,0,0a.08.08,0,0,0,0,0v-.06Zm.11,2.23s0,.08,0,.14v.05s0,0,0-.05a.14.14,0,0,1,.07-.06V54.4Zm-.06-1.77v0h.05Zm.08,2a.37.37,0,0,0,0,.11l0,.26a.06.06,0,0,0,.05.06s0-.07,0-.11l0,0v-.06l0-.11A.42.42,0,0,0,47.65,54.65Zm0-1.94,0,0,0,0h0l0,0Zm.08,2.42v.2a0,0,0,0,0,0,0l0-.12a.08.08,0,0,1,0,0h0Zm-.06-1.71v0h0v0Zm.06-.51,0,0S47.72,52.92,47.7,52.91Zm.11,0v0Zm.12,2.55h0v0Zm0-2.07v0s0,0,0,0A0,0,0,0,0,47.89,53.38ZM48,55h0l0,0,0,0Zm0,.25v0H48v0Zm-.11-3.51a.25.25,0,0,0,0,.07l.08,0-.06,0Zm.11,3.4v0s0,0,0,0Zm0-2v.08l0,0v-.09Zm0,.16s0,0,0,.06v0Zm0,.14v0h0A.1.1,0,0,0,48,53.44Zm0-1.76,0,0v0h0l0-.08Zm0,2.08v0l0,0Zm.09,1.4a.41.41,0,0,0,.05.09v0h0v0Zm0-.17,0,0Zm.09.38,0,0Zm-.1-3.92h0Zm.14,3.5v0a.05.05,0,0,0,0,0Zm0,.22,0,0,0,0,0,0Zm-.09-3,0,0h0A.08.08,0,0,0,48.23,52.16Zm0-.43v.06h0A.64.64,0,0,0,48.22,51.73Zm.32,1.4a.2.2,0,0,0-.11,0l-.06,0v0h0l.11,0A.08.08,0,0,0,48.54,53.13Zm-.14-1,0,0h0Zm.06.09-.06,0v0h0l.06,0S48.49,52.19,48.46,52.18Zm0,3.15s0,.06.06.09A.47.47,0,0,0,48.51,55.33Zm0-1.5v.06h0A.12.12,0,0,0,48.49,53.83Zm-.07-2.2,0,0S48.46,51.64,48.42,51.63Zm.21,3.53-.06,0v0h0l.06,0v0Zm.11-3.29-.12.06-.06,0,0,0,0,0,.09,0,.05,0v0l0-.14Zm-.18-.11v0h0l0,0h0Zm.09.35a.06.06,0,0,0,0,.06l.08,0Zm.07,1.39a.13.13,0,0,0,0,.06l0,.07,0-.06v0Zm0,.25a.07.07,0,0,0,0,0A.05.05,0,0,0,48.69,53.75Zm.06,1.56v0l0,0h0v-.06Zm.09-1.77v0l.06,0A.08.08,0,0,0,48.84,53.54Zm0-.1,0,0Zm.07-.12,0,0,0,0,0,0v0ZM49,55.21l0,0h0Zm.07-1.45-.06,0,0,0h.07S49.07,53.78,49.07,53.76Zm0,1.64a.05.05,0,0,0,0,.05v0Zm.13-.22h0v0h0S49.16,55.21,49.17,55.18Zm-.09-1.44v0Zm.07,1.85v0h.06Zm0-.11a.11.11,0,0,0,0,.07v-.06Zm0-2.09a.1.1,0,0,0,0,0,.25.25,0,0,0,0,.07v-.07h0v0Zm-.06-1.73v0l0,0h0Zm0,.09v.17h0v-.15Zm0,.25v0h0v0Zm0,.34v0h0Zm.11,1.6,0,0S49.23,54,49.23,53.94Zm0,1.36v.05l0,0Zm0,.11v.05h.05l0,0Zm.09-.24v.08h0v-.08Zm.1.7v0h0A.09.09,0,0,0,49.48,55.87Z" transform="translate(0 -2.99)"/><text transform="translate(18.34 54.33) scale(1.02 1)" style="opacity:0.76;font-size:2.166447401046753px;font-family:MyriadPro-Regular, Myriad Pro;letter-spacing:0.26905516655028244em">FILL<tspan x="5.95" y="0" style="letter-spacing:0.2231783795025819em"> </tspan><tspan x="6.89" y="0" style="letter-spacing:0.23292996708760036em">Y</tspan><tspan x="8.57" y="0">OUR DRE</tspan><tspan x="20.84" y="0" style="letter-spacing:0.2650658807200476em">A</tspan><tspan x="22.74" y="0">M</tspan></text></svg>