<svg width="100%" height="100%" id="svg" viewBox="0 0 1440 590" xmlns="http://www.w3.org/2000/svg" class="transition duration-300 ease-in-out delay-150"><defs><linearGradient id="gradient" x1="0%" y1="50%" x2="100%" y2="50%"><stop offset="5%" stop-color="#00d084"></stop><stop offset="95%" stop-color="#8ED1FC"></stop></linearGradient></defs><path d="M 0,600 C 0,600 0,200 0,200 C 100.53588516746413,238.64114832535887 201.07177033492826,277.28229665071774 308,259 C 414.92822966507174,240.7177033492823 528.2488038277512,165.51196172248802 628,161 C 727.7511961722488,156.48803827751198 813.9330143540669,222.66985645933016 909,254 C 1004.0669856459331,285.33014354066984 1108.019138755981,281.8086124401914 1198,267 C 1287.980861244019,252.19138755980862 1363.9904306220096,226.0956937799043 1440,200 C 1440,200 1440,600 1440,600 Z" stroke="none" stroke-width="0" fill="url(#gradient)" fill-opacity="0.53" class="transition-all duration-300 ease-in-out delay-150 path-0"></path><defs><linearGradient id="gradient" x1="0%" y1="50%" x2="100%" y2="50%"><stop offset="5%" stop-color="#00d084"></stop><stop offset="95%" stop-color="#8ED1FC"></stop></linearGradient></defs><path d="M 0,600 C 0,600 0,400 0,400 C 98.61244019138755,446.6985645933014 197.2248803827751,493.39712918660285 293,474 C 388.7751196172249,454.60287081339715 481.7129186602872,369.1100478468899 585,328 C 688.2870813397128,286.8899521531101 801.9234449760766,290.1626794258374 895,330 C 988.0765550239234,369.8373205741626 1060.5933014354068,446.2392344497607 1148,464 C 1235.4066985645932,481.7607655502393 1337.7033492822966,440.88038277511964 1440,400 C 1440,400 1440,600 1440,600 Z" stroke="none" stroke-width="0" fill="url(#gradient)" fill-opacity="1" class="transition-all duration-300 ease-in-out delay-150 path-1"></path></svg>